<svg alt="Bitcoin Donation" viewBox="0 0 1125 1125" width="200px" height="200px" fill="#000000" xml:space="preserve" xmlns="http://www.w3.org/2000/svg">
	<defs>
		<rect id="btc-qr-marker" x="13.125" y="13.125" width="148.75" height="148.75" fill="none" stroke="#000" stroke-width="26.25" />
	</defs>
	<rect x="0" y="0" width="1125" height="1125" fill="rgb(255,255,255)" />
	<g transform="translate(50,50)">
		<rect x="225" y="0" width="25" height="25" />
		<rect x="250" y="0" width="25" height="25" />
		<rect x="275" y="0" width="25" height="25" />
		<rect x="300" y="0" width="25" height="25" />
		<rect x="350" y="0" width="25" height="25" />
		<rect x="400" y="0" width="25" height="25" />
		<rect x="450" y="0" width="25" height="25" />
		<rect x="475" y="0" width="25" height="25" />
		<rect x="500" y="0" width="25" height="25" />
		<rect x="575" y="0" width="25" height="25" />
		<rect x="600" y="0" width="25" height="25" />
		<rect x="650" y="0" width="25" height="25" />
		<rect x="725" y="0" width="25" height="25" />
		<rect x="775" y="0" width="25" height="25" />
		<rect x="800" y="0" width="25" height="25" />
		<rect x="200" y="25" width="25" height="25" />
		<rect x="250" y="25" width="25" height="25" />
		<rect x="325" y="25" width="25" height="25" />
		<rect x="350" y="25" width="25" height="25" />
		<rect x="375" y="25" width="25" height="25" />
		<rect x="425" y="25" width="25" height="25" />
		<rect x="450" y="25" width="25" height="25" />
		<rect x="475" y="25" width="25" height="25" />
		<rect x="525" y="25" width="25" height="25" />
		<rect x="675" y="25" width="25" height="25" />
		<rect x="700" y="25" width="25" height="25" />
		<rect x="725" y="25" width="25" height="25" />
		<rect x="800" y="25" width="25" height="25" />
		<rect x="200" y="50" width="25" height="25" />
		<rect x="275" y="50" width="25" height="25" />
		<rect x="300" y="50" width="25" height="25" />
		<rect x="325" y="50" width="25" height="25" />
		<rect x="350" y="50" width="25" height="25" />
		<rect x="375" y="50" width="25" height="25" />
		<rect x="425" y="50" width="25" height="25" />
		<rect x="450" y="50" width="25" height="25" />
		<rect x="650" y="50" width="25" height="25" />
		<rect x="725" y="50" width="25" height="25" />
		<rect x="750" y="50" width="25" height="25" />
		<rect x="275" y="75" width="25" height="25" />
		<rect x="300" y="75" width="25" height="25" />
		<rect x="325" y="75" width="25" height="25" />
		<rect x="375" y="75" width="25" height="25" />
		<rect x="400" y="75" width="25" height="25" />
		<rect x="425" y="75" width="25" height="25" />
		<rect x="475" y="75" width="25" height="25" />
		<rect x="500" y="75" width="25" height="25" />
		<rect x="550" y="75" width="25" height="25" />
		<rect x="575" y="75" width="25" height="25" />
		<rect x="675" y="75" width="25" height="25" />
		<rect x="700" y="75" width="25" height="25" />
		<rect x="775" y="75" width="25" height="25" />
		<rect x="800" y="75" width="25" height="25" />
		<rect x="225" y="100" width="25" height="25" />
		<rect x="250" y="100" width="25" height="25" />
		<rect x="325" y="100" width="25" height="25" />
		<rect x="350" y="100" width="25" height="25" />
		<rect x="375" y="100" width="25" height="25" />
		<rect x="475" y="100" width="25" height="25" />
		<rect x="600" y="100" width="25" height="25" />
		<rect x="625" y="100" width="25" height="25" />
		<rect x="650" y="100" width="25" height="25" />
		<rect x="750" y="100" width="25" height="25" />
		<rect x="775" y="100" width="25" height="25" />
		<rect x="800" y="100" width="25" height="25" />
		<rect x="200" y="125" width="25" height="25" />
		<rect x="300" y="125" width="25" height="25" />
		<rect x="425" y="125" width="25" height="25" />
		<rect x="475" y="125" width="25" height="25" />
		<rect x="500" y="125" width="25" height="25" />
		<rect x="625" y="125" width="25" height="25" />
		<rect x="675" y="125" width="25" height="25" />
		<rect x="725" y="125" width="25" height="25" />
		<rect x="750" y="125" width="25" height="25" />
		<rect x="800" y="125" width="25" height="25" />
		<rect x="200" y="150" width="25" height="25" />
		<rect x="250" y="150" width="25" height="25" />
		<rect x="300" y="150" width="25" height="25" />
		<rect x="350" y="150" width="25" height="25" />
		<rect x="400" y="150" width="25" height="25" />
		<rect x="450" y="150" width="25" height="25" />
		<rect x="500" y="150" width="25" height="25" />
		<rect x="550" y="150" width="25" height="25" />
		<rect x="600" y="150" width="25" height="25" />
		<rect x="650" y="150" width="25" height="25" />
		<rect x="700" y="150" width="25" height="25" />
		<rect x="750" y="150" width="25" height="25" />
		<rect x="800" y="150" width="25" height="25" />
		<rect x="200" y="175" width="25" height="25" />
		<rect x="250" y="175" width="25" height="25" />
		<rect x="325" y="175" width="25" height="25" />
		<rect x="350" y="175" width="25" height="25" />
		<rect x="400" y="175" width="25" height="25" />
		<rect x="475" y="175" width="25" height="25" />
		<rect x="550" y="175" width="25" height="25" />
		<rect x="600" y="175" width="25" height="25" />
		<rect x="625" y="175" width="25" height="25" />
		<rect x="675" y="175" width="25" height="25" />
		<rect x="750" y="175" width="25" height="25" />
		<rect x="775" y="175" width="25" height="25" />
		<rect x="50" y="200" width="25" height="25" />
		<rect x="75" y="200" width="25" height="25" />
		<rect x="100" y="200" width="25" height="25" />
		<rect x="150" y="200" width="25" height="25" />
		<rect x="200" y="200" width="25" height="25" />
		<rect x="250" y="200" width="25" height="25" />
		<rect x="375" y="200" width="25" height="25" />
		<rect x="425" y="200" width="25" height="25" />
		<rect x="625" y="200" width="25" height="25" />
		<rect x="675" y="200" width="25" height="25" />
		<rect x="700" y="200" width="25" height="25" />
		<rect x="725" y="200" width="25" height="25" />
		<rect x="825" y="200" width="25" height="25" />
		<rect x="850" y="200" width="25" height="25" />
		<rect x="875" y="200" width="25" height="25" />
		<rect x="950" y="200" width="25" height="25" />
		<rect x="975" y="200" width="25" height="25" />
		<rect x="1000" y="200" width="25" height="25" />
		<rect x="50" y="225" width="25" height="25" />
		<rect x="100" y="225" width="25" height="25" />
		<rect x="175" y="225" width="25" height="25" />
		<rect x="275" y="225" width="25" height="25" />
		<rect x="325" y="225" width="25" height="25" />
		<rect x="350" y="225" width="25" height="25" />
		<rect x="375" y="225" width="25" height="25" />
		<rect x="450" y="225" width="25" height="25" />
		<rect x="475" y="225" width="25" height="25" />
		<rect x="600" y="225" width="25" height="25" />
		<rect x="725" y="225" width="25" height="25" />
		<rect x="750" y="225" width="25" height="25" />
		<rect x="775" y="225" width="25" height="25" />
		<rect x="800" y="225" width="25" height="25" />
		<rect x="850" y="225" width="25" height="25" />
		<rect x="875" y="225" width="25" height="25" />
		<rect x="900" y="225" width="25" height="25" />
		<rect x="1000" y="225" width="25" height="25" />
		<rect x="75" y="250" width="25" height="25" />
		<rect x="100" y="250" width="25" height="25" />
		<rect x="125" y="250" width="25" height="25" />
		<rect x="150" y="250" width="25" height="25" />
		<rect x="175" y="250" width="25" height="25" />
		<rect x="200" y="250" width="25" height="25" />
		<rect x="275" y="250" width="25" height="25" />
		<rect x="300" y="250" width="25" height="25" />
		<rect x="325" y="250" width="25" height="25" />
		<rect x="350" y="250" width="25" height="25" />
		<rect x="500" y="250" width="25" height="25" />
		<rect x="525" y="250" width="25" height="25" />
		<rect x="550" y="250" width="25" height="25" />
		<rect x="575" y="250" width="25" height="25" />
		<rect x="650" y="250" width="25" height="25" />
		<rect x="675" y="250" width="25" height="25" />
		<rect x="700" y="250" width="25" height="25" />
		<rect x="750" y="250" width="25" height="25" />
		<rect x="850" y="250" width="25" height="25" />
		<rect x="950" y="250" width="25" height="25" />
		<rect x="0" y="275" width="25" height="25" />
		<rect x="75" y="275" width="25" height="25" />
		<rect x="100" y="275" width="25" height="25" />
		<rect x="175" y="275" width="25" height="25" />
		<rect x="350" y="275" width="25" height="25" />
		<rect x="400" y="275" width="25" height="25" />
		<rect x="475" y="275" width="25" height="25" />
		<rect x="500" y="275" width="25" height="25" />
		<rect x="525" y="275" width="25" height="25" />
		<rect x="550" y="275" width="25" height="25" />
		<rect x="675" y="275" width="25" height="25" />
		<rect x="700" y="275" width="25" height="25" />
		<rect x="750" y="275" width="25" height="25" />
		<rect x="775" y="275" width="25" height="25" />
		<rect x="825" y="275" width="25" height="25" />
		<rect x="850" y="275" width="25" height="25" />
		<rect x="925" y="275" width="25" height="25" />
		<rect x="0" y="300" width="25" height="25" />
		<rect x="25" y="300" width="25" height="25" />
		<rect x="75" y="300" width="25" height="25" />
		<rect x="100" y="300" width="25" height="25" />
		<rect x="150" y="300" width="25" height="25" />
		<rect x="175" y="300" width="25" height="25" />
		<rect x="250" y="300" width="25" height="25" />
		<rect x="400" y="300" width="25" height="25" />
		<rect x="425" y="300" width="25" height="25" />
		<rect x="450" y="300" width="25" height="25" />
		<rect x="550" y="300" width="25" height="25" />
		<rect x="600" y="300" width="25" height="25" />
		<rect x="625" y="300" width="25" height="25" />
		<rect x="650" y="300" width="25" height="25" />
		<rect x="675" y="300" width="25" height="25" />
		<rect x="725" y="300" width="25" height="25" />
		<rect x="775" y="300" width="25" height="25" />
		<rect x="800" y="300" width="25" height="25" />
		<rect x="825" y="300" width="25" height="25" />
		<rect x="950" y="300" width="25" height="25" />
		<rect x="975" y="300" width="25" height="25" />
		<rect x="1000" y="300" width="25" height="25" />
		<rect x="25" y="325" width="25" height="25" />
		<rect x="100" y="325" width="25" height="25" />
		<rect x="200" y="325" width="25" height="25" />
		<rect x="300" y="325" width="25" height="25" />
		<rect x="400" y="325" width="25" height="25" />
		<rect x="450" y="325" width="25" height="25" />
		<rect x="500" y="325" width="25" height="25" />
		<rect x="600" y="325" width="25" height="25" />
		<rect x="625" y="325" width="25" height="25" />
		<rect x="675" y="325" width="25" height="25" />
		<rect x="700" y="325" width="25" height="25" />
		<rect x="850" y="325" width="25" height="25" />
		<rect x="875" y="325" width="25" height="25" />
		<rect x="900" y="325" width="25" height="25" />
		<rect x="975" y="325" width="25" height="25" />
		<rect x="1000" y="325" width="25" height="25" />
		<rect x="0" y="350" width="25" height="25" />
		<rect x="25" y="350" width="25" height="25" />
		<rect x="75" y="350" width="25" height="25" />
		<rect x="125" y="350" width="25" height="25" />
		<rect x="150" y="350" width="25" height="25" />
		<rect x="175" y="350" width="25" height="25" />
		<rect x="200" y="350" width="25" height="25" />
		<rect x="225" y="350" width="25" height="25" />
		<rect x="250" y="350" width="25" height="25" />
		<rect x="300" y="350" width="25" height="25" />
		<rect x="375" y="350" width="25" height="25" />
		<rect x="400" y="350" width="25" height="25" />
		<rect x="450" y="350" width="25" height="25" />
		<rect x="525" y="350" width="25" height="25" />
		<rect x="550" y="350" width="25" height="25" />
		<rect x="650" y="350" width="25" height="25" />
		<rect x="750" y="350" width="25" height="25" />
		<rect x="800" y="350" width="25" height="25" />
		<rect x="850" y="350" width="25" height="25" />
		<rect x="925" y="350" width="25" height="25" />
		<rect x="950" y="350" width="25" height="25" />
		<rect x="0" y="375" width="25" height="25" />
		<rect x="50" y="375" width="25" height="25" />
		<rect x="100" y="375" width="25" height="25" />
		<rect x="325" y="375" width="25" height="25" />
		<rect x="350" y="375" width="25" height="25" />
		<rect x="375" y="375" width="25" height="25" />
		<rect x="400" y="375" width="25" height="25" />
		<rect x="525" y="375" width="25" height="25" />
		<rect x="575" y="375" width="25" height="25" />
		<rect x="600" y="375" width="25" height="25" />
		<rect x="625" y="375" width="25" height="25" />
		<rect x="700" y="375" width="25" height="25" />
		<rect x="850" y="375" width="25" height="25" />
		<rect x="875" y="375" width="25" height="25" />
		<rect x="900" y="375" width="25" height="25" />
		<rect x="975" y="375" width="25" height="25" />
		<rect x="1000" y="375" width="25" height="25" />
		<rect x="0" y="400" width="25" height="25" />
		<rect x="25" y="400" width="25" height="25" />
		<rect x="50" y="400" width="25" height="25" />
		<rect x="125" y="400" width="25" height="25" />
		<rect x="150" y="400" width="25" height="25" />
		<rect x="175" y="400" width="25" height="25" />
		<rect x="200" y="400" width="25" height="25" />
		<rect x="250" y="400" width="25" height="25" />
		<rect x="275" y="400" width="25" height="25" />
		<rect x="350" y="400" width="25" height="25" />
		<rect x="400" y="400" width="25" height="25" />
		<rect x="425" y="400" width="25" height="25" />
		<rect x="475" y="400" width="25" height="25" />
		<rect x="500" y="400" width="25" height="25" />
		<rect x="525" y="400" width="25" height="25" />
		<rect x="550" y="400" width="25" height="25" />
		<rect x="575" y="400" width="25" height="25" />
		<rect x="700" y="400" width="25" height="25" />
		<rect x="725" y="400" width="25" height="25" />
		<rect x="800" y="400" width="25" height="25" />
		<rect x="925" y="400" width="25" height="25" />
		<rect x="950" y="400" width="25" height="25" />
		<rect x="0" y="425" width="25" height="25" />
		<rect x="25" y="425" width="25" height="25" />
		<rect x="50" y="425" width="25" height="25" />
		<rect x="175" y="425" width="25" height="25" />
		<rect x="200" y="425" width="25" height="25" />
		<rect x="250" y="425" width="25" height="25" />
		<rect x="300" y="425" width="25" height="25" />
		<rect x="325" y="425" width="25" height="25" />
		<rect x="425" y="425" width="25" height="25" />
		<rect x="475" y="425" width="25" height="25" />
		<rect x="525" y="425" width="25" height="25" />
		<rect x="550" y="425" width="25" height="25" />
		<rect x="625" y="425" width="25" height="25" />
		<rect x="650" y="425" width="25" height="25" />
		<rect x="700" y="425" width="25" height="25" />
		<rect x="775" y="425" width="25" height="25" />
		<rect x="825" y="425" width="25" height="25" />
		<rect x="850" y="425" width="25" height="25" />
		<rect x="875" y="425" width="25" height="25" />
		<rect x="900" y="425" width="25" height="25" />
		<rect x="925" y="425" width="25" height="25" />
		<rect x="950" y="425" width="25" height="25" />
		<rect x="1000" y="425" width="25" height="25" />
		<rect x="0" y="450" width="25" height="25" />
		<rect x="75" y="450" width="25" height="25" />
		<rect x="150" y="450" width="25" height="25" />
		<rect x="175" y="450" width="25" height="25" />
		<rect x="275" y="450" width="25" height="25" />
		<rect x="300" y="450" width="25" height="25" />
		<rect x="325" y="450" width="25" height="25" />
		<rect x="375" y="450" width="25" height="25" />
		<rect x="425" y="450" width="25" height="25" />
		<rect x="500" y="450" width="25" height="25" />
		<rect x="525" y="450" width="25" height="25" />
		<rect x="550" y="450" width="25" height="25" />
		<rect x="600" y="450" width="25" height="25" />
		<rect x="675" y="450" width="25" height="25" />
		<rect x="750" y="450" width="25" height="25" />
		<rect x="800" y="450" width="25" height="25" />
		<rect x="850" y="450" width="25" height="25" />
		<rect x="875" y="450" width="25" height="25" />
		<rect x="925" y="450" width="25" height="25" />
		<rect x="0" y="475" width="25" height="25" />
		<rect x="100" y="475" width="25" height="25" />
		<rect x="125" y="475" width="25" height="25" />
		<rect x="175" y="475" width="25" height="25" />
		<rect x="225" y="475" width="25" height="25" />
		<rect x="250" y="475" width="25" height="25" />
		<rect x="300" y="475" width="25" height="25" />
		<rect x="325" y="475" width="25" height="25" />
		<rect x="350" y="475" width="25" height="25" />
		<rect x="375" y="475" width="25" height="25" />
		<rect x="425" y="475" width="25" height="25" />
		<rect x="450" y="475" width="25" height="25" />
		<rect x="500" y="475" width="25" height="25" />
		<rect x="525" y="475" width="25" height="25" />
		<rect x="550" y="475" width="25" height="25" />
		<rect x="575" y="475" width="25" height="25" />
		<rect x="600" y="475" width="25" height="25" />
		<rect x="625" y="475" width="25" height="25" />
		<rect x="675" y="475" width="25" height="25" />
		<rect x="700" y="475" width="25" height="25" />
		<rect x="900" y="475" width="25" height="25" />
		<rect x="925" y="475" width="25" height="25" />
		<rect x="1000" y="475" width="25" height="25" />
		<rect x="0" y="500" width="25" height="25" />
		<rect x="50" y="500" width="25" height="25" />
		<rect x="75" y="500" width="25" height="25" />
		<rect x="100" y="500" width="25" height="25" />
		<rect x="125" y="500" width="25" height="25" />
		<rect x="150" y="500" width="25" height="25" />
		<rect x="175" y="500" width="25" height="25" />
		<rect x="225" y="500" width="25" height="25" />
		<rect x="300" y="500" width="25" height="25" />
		<rect x="325" y="500" width="25" height="25" />
		<rect x="400" y="500" width="25" height="25" />
		<rect x="425" y="500" width="25" height="25" />
		<rect x="450" y="500" width="25" height="25" />
		<rect x="525" y="500" width="25" height="25" />
		<rect x="550" y="500" width="25" height="25" />
		<rect x="600" y="500" width="25" height="25" />
		<rect x="625" y="500" width="25" height="25" />
		<rect x="675" y="500" width="25" height="25" />
		<rect x="700" y="500" width="25" height="25" />
		<rect x="750" y="500" width="25" height="25" />
		<rect x="775" y="500" width="25" height="25" />
		<rect x="925" y="500" width="25" height="25" />
		<rect x="950" y="500" width="25" height="25" />
		<rect x="975" y="500" width="25" height="25" />
		<rect x="0" y="525" width="25" height="25" />
		<rect x="50" y="525" width="25" height="25" />
		<rect x="125" y="525" width="25" height="25" />
		<rect x="175" y="525" width="25" height="25" />
		<rect x="200" y="525" width="25" height="25" />
		<rect x="250" y="525" width="25" height="25" />
		<rect x="275" y="525" width="25" height="25" />
		<rect x="300" y="525" width="25" height="25" />
		<rect x="325" y="525" width="25" height="25" />
		<rect x="375" y="525" width="25" height="25" />
		<rect x="425" y="525" width="25" height="25" />
		<rect x="450" y="525" width="25" height="25" />
		<rect x="475" y="525" width="25" height="25" />
		<rect x="525" y="525" width="25" height="25" />
		<rect x="600" y="525" width="25" height="25" />
		<rect x="625" y="525" width="25" height="25" />
		<rect x="650" y="525" width="25" height="25" />
		<rect x="775" y="525" width="25" height="25" />
		<rect x="800" y="525" width="25" height="25" />
		<rect x="850" y="525" width="25" height="25" />
		<rect x="875" y="525" width="25" height="25" />
		<rect x="900" y="525" width="25" height="25" />
		<rect x="925" y="525" width="25" height="25" />
		<rect x="975" y="525" width="25" height="25" />
		<rect x="1000" y="525" width="25" height="25" />
		<rect x="0" y="550" width="25" height="25" />
		<rect x="25" y="550" width="25" height="25" />
		<rect x="50" y="550" width="25" height="25" />
		<rect x="125" y="550" width="25" height="25" />
		<rect x="150" y="550" width="25" height="25" />
		<rect x="225" y="550" width="25" height="25" />
		<rect x="250" y="550" width="25" height="25" />
		<rect x="300" y="550" width="25" height="25" />
		<rect x="350" y="550" width="25" height="25" />
		<rect x="400" y="550" width="25" height="25" />
		<rect x="450" y="550" width="25" height="25" />
		<rect x="475" y="550" width="25" height="25" />
		<rect x="500" y="550" width="25" height="25" />
		<rect x="550" y="550" width="25" height="25" />
		<rect x="625" y="550" width="25" height="25" />
		<rect x="675" y="550" width="25" height="25" />
		<rect x="700" y="550" width="25" height="25" />
		<rect x="725" y="550" width="25" height="25" />
		<rect x="750" y="550" width="25" height="25" />
		<rect x="800" y="550" width="25" height="25" />
		<rect x="825" y="550" width="25" height="25" />
		<rect x="875" y="550" width="25" height="25" />
		<rect x="925" y="550" width="25" height="25" />
		<rect x="25" y="575" width="25" height="25" />
		<rect x="200" y="575" width="25" height="25" />
		<rect x="225" y="575" width="25" height="25" />
		<rect x="275" y="575" width="25" height="25" />
		<rect x="375" y="575" width="25" height="25" />
		<rect x="450" y="575" width="25" height="25" />
		<rect x="550" y="575" width="25" height="25" />
		<rect x="575" y="575" width="25" height="25" />
		<rect x="600" y="575" width="25" height="25" />
		<rect x="775" y="575" width="25" height="25" />
		<rect x="825" y="575" width="25" height="25" />
		<rect x="875" y="575" width="25" height="25" />
		<rect x="900" y="575" width="25" height="25" />
		<rect x="925" y="575" width="25" height="25" />
		<rect x="975" y="575" width="25" height="25" />
		<rect x="1000" y="575" width="25" height="25" />
		<rect x="0" y="600" width="25" height="25" />
		<rect x="50" y="600" width="25" height="25" />
		<rect x="75" y="600" width="25" height="25" />
		<rect x="150" y="600" width="25" height="25" />
		<rect x="200" y="600" width="25" height="25" />
		<rect x="225" y="600" width="25" height="25" />
		<rect x="350" y="600" width="25" height="25" />
		<rect x="375" y="600" width="25" height="25" />
		<rect x="450" y="600" width="25" height="25" />
		<rect x="475" y="600" width="25" height="25" />
		<rect x="575" y="600" width="25" height="25" />
		<rect x="600" y="600" width="25" height="25" />
		<rect x="625" y="600" width="25" height="25" />
		<rect x="650" y="600" width="25" height="25" />
		<rect x="725" y="600" width="25" height="25" />
		<rect x="750" y="600" width="25" height="25" />
		<rect x="775" y="600" width="25" height="25" />
		<rect x="800" y="600" width="25" height="25" />
		<rect x="925" y="600" width="25" height="25" />
		<rect x="950" y="600" width="25" height="25" />
		<rect x="975" y="600" width="25" height="25" />
		<rect x="25" y="625" width="25" height="25" />
		<rect x="50" y="625" width="25" height="25" />
		<rect x="100" y="625" width="25" height="25" />
		<rect x="125" y="625" width="25" height="25" />
		<rect x="175" y="625" width="25" height="25" />
		<rect x="225" y="625" width="25" height="25" />
		<rect x="250" y="625" width="25" height="25" />
		<rect x="300" y="625" width="25" height="25" />
		<rect x="325" y="625" width="25" height="25" />
		<rect x="350" y="625" width="25" height="25" />
		<rect x="450" y="625" width="25" height="25" />
		<rect x="475" y="625" width="25" height="25" />
		<rect x="550" y="625" width="25" height="25" />
		<rect x="625" y="625" width="25" height="25" />
		<rect x="650" y="625" width="25" height="25" />
		<rect x="700" y="625" width="25" height="25" />
		<rect x="775" y="625" width="25" height="25" />
		<rect x="825" y="625" width="25" height="25" />
		<rect x="850" y="625" width="25" height="25" />
		<rect x="875" y="625" width="25" height="25" />
		<rect x="900" y="625" width="25" height="25" />
		<rect x="950" y="625" width="25" height="25" />
		<rect x="1000" y="625" width="25" height="25" />
		<rect x="0" y="650" width="25" height="25" />
		<rect x="25" y="650" width="25" height="25" />
		<rect x="50" y="650" width="25" height="25" />
		<rect x="100" y="650" width="25" height="25" />
		<rect x="125" y="650" width="25" height="25" />
		<rect x="150" y="650" width="25" height="25" />
		<rect x="200" y="650" width="25" height="25" />
		<rect x="225" y="650" width="25" height="25" />
		<rect x="300" y="650" width="25" height="25" />
		<rect x="350" y="650" width="25" height="25" />
		<rect x="425" y="650" width="25" height="25" />
		<rect x="525" y="650" width="25" height="25" />
		<rect x="550" y="650" width="25" height="25" />
		<rect x="575" y="650" width="25" height="25" />
		<rect x="600" y="650" width="25" height="25" />
		<rect x="625" y="650" width="25" height="25" />
		<rect x="675" y="650" width="25" height="25" />
		<rect x="700" y="650" width="25" height="25" />
		<rect x="750" y="650" width="25" height="25" />
		<rect x="825" y="650" width="25" height="25" />
		<rect x="850" y="650" width="25" height="25" />
		<rect x="925" y="650" width="25" height="25" />
		<rect x="0" y="675" width="25" height="25" />
		<rect x="50" y="675" width="25" height="25" />
		<rect x="100" y="675" width="25" height="25" />
		<rect x="175" y="675" width="25" height="25" />
		<rect x="225" y="675" width="25" height="25" />
		<rect x="275" y="675" width="25" height="25" />
		<rect x="325" y="675" width="25" height="25" />
		<rect x="350" y="675" width="25" height="25" />
		<rect x="425" y="675" width="25" height="25" />
		<rect x="450" y="675" width="25" height="25" />
		<rect x="475" y="675" width="25" height="25" />
		<rect x="500" y="675" width="25" height="25" />
		<rect x="525" y="675" width="25" height="25" />
		<rect x="575" y="675" width="25" height="25" />
		<rect x="600" y="675" width="25" height="25" />
		<rect x="675" y="675" width="25" height="25" />
		<rect x="750" y="675" width="25" height="25" />
		<rect x="775" y="675" width="25" height="25" />
		<rect x="800" y="675" width="25" height="25" />
		<rect x="900" y="675" width="25" height="25" />
		<rect x="925" y="675" width="25" height="25" />
		<rect x="975" y="675" width="25" height="25" />
		<rect x="1000" y="675" width="25" height="25" />
		<rect x="25" y="700" width="25" height="25" />
		<rect x="50" y="700" width="25" height="25" />
		<rect x="75" y="700" width="25" height="25" />
		<rect x="125" y="700" width="25" height="25" />
		<rect x="150" y="700" width="25" height="25" />
		<rect x="175" y="700" width="25" height="25" />
		<rect x="275" y="700" width="25" height="25" />
		<rect x="300" y="700" width="25" height="25" />
		<rect x="325" y="700" width="25" height="25" />
		<rect x="350" y="700" width="25" height="25" />
		<rect x="400" y="700" width="25" height="25" />
		<rect x="475" y="700" width="25" height="25" />
		<rect x="525" y="700" width="25" height="25" />
		<rect x="550" y="700" width="25" height="25" />
		<rect x="600" y="700" width="25" height="25" />
		<rect x="625" y="700" width="25" height="25" />
		<rect x="675" y="700" width="25" height="25" />
		<rect x="700" y="700" width="25" height="25" />
		<rect x="725" y="700" width="25" height="25" />
		<rect x="775" y="700" width="25" height="25" />
		<rect x="825" y="700" width="25" height="25" />
		<rect x="875" y="700" width="25" height="25" />
		<rect x="925" y="700" width="25" height="25" />
		<rect x="950" y="700" width="25" height="25" />
		<rect x="975" y="700" width="25" height="25" />
		<rect x="0" y="725" width="25" height="25" />
		<rect x="25" y="725" width="25" height="25" />
		<rect x="50" y="725" width="25" height="25" />
		<rect x="75" y="725" width="25" height="25" />
		<rect x="100" y="725" width="25" height="25" />
		<rect x="200" y="725" width="25" height="25" />
		<rect x="225" y="725" width="25" height="25" />
		<rect x="250" y="725" width="25" height="25" />
		<rect x="300" y="725" width="25" height="25" />
		<rect x="375" y="725" width="25" height="25" />
		<rect x="450" y="725" width="25" height="25" />
		<rect x="475" y="725" width="25" height="25" />
		<rect x="525" y="725" width="25" height="25" />
		<rect x="575" y="725" width="25" height="25" />
		<rect x="650" y="725" width="25" height="25" />
		<rect x="675" y="725" width="25" height="25" />
		<rect x="750" y="725" width="25" height="25" />
		<rect x="800" y="725" width="25" height="25" />
		<rect x="825" y="725" width="25" height="25" />
		<rect x="875" y="725" width="25" height="25" />
		<rect x="900" y="725" width="25" height="25" />
		<rect x="950" y="725" width="25" height="25" />
		<rect x="1000" y="725" width="25" height="25" />
		<rect x="0" y="750" width="25" height="25" />
		<rect x="50" y="750" width="25" height="25" />
		<rect x="75" y="750" width="25" height="25" />
		<rect x="125" y="750" width="25" height="25" />
		<rect x="150" y="750" width="25" height="25" />
		<rect x="175" y="750" width="25" height="25" />
		<rect x="200" y="750" width="25" height="25" />
		<rect x="275" y="750" width="25" height="25" />
		<rect x="300" y="750" width="25" height="25" />
		<rect x="350" y="750" width="25" height="25" />
		<rect x="450" y="750" width="25" height="25" />
		<rect x="525" y="750" width="25" height="25" />
		<rect x="600" y="750" width="25" height="25" />
		<rect x="650" y="750" width="25" height="25" />
		<rect x="675" y="750" width="25" height="25" />
		<rect x="700" y="750" width="25" height="25" />
		<rect x="775" y="750" width="25" height="25" />
		<rect x="825" y="750" width="25" height="25" />
		<rect x="850" y="750" width="25" height="25" />
		<rect x="900" y="750" width="25" height="25" />
		<rect x="975" y="750" width="25" height="25" />
		<rect x="0" y="775" width="25" height="25" />
		<rect x="75" y="775" width="25" height="25" />
		<rect x="175" y="775" width="25" height="25" />
		<rect x="200" y="775" width="25" height="25" />
		<rect x="275" y="775" width="25" height="25" />
		<rect x="300" y="775" width="25" height="25" />
		<rect x="325" y="775" width="25" height="25" />
		<rect x="350" y="775" width="25" height="25" />
		<rect x="400" y="775" width="25" height="25" />
		<rect x="450" y="775" width="25" height="25" />
		<rect x="550" y="775" width="25" height="25" />
		<rect x="575" y="775" width="25" height="25" />
		<rect x="600" y="775" width="25" height="25" />
		<rect x="625" y="775" width="25" height="25" />
		<rect x="675" y="775" width="25" height="25" />
		<rect x="775" y="775" width="25" height="25" />
		<rect x="800" y="775" width="25" height="25" />
		<rect x="925" y="775" width="25" height="25" />
		<rect x="975" y="775" width="25" height="25" />
		<rect x="0" y="800" width="25" height="25" />
		<rect x="100" y="800" width="25" height="25" />
		<rect x="125" y="800" width="25" height="25" />
		<rect x="150" y="800" width="25" height="25" />
		<rect x="200" y="800" width="25" height="25" />
		<rect x="225" y="800" width="25" height="25" />
		<rect x="250" y="800" width="25" height="25" />
		<rect x="300" y="800" width="25" height="25" />
		<rect x="325" y="800" width="25" height="25" />
		<rect x="350" y="800" width="25" height="25" />
		<rect x="425" y="800" width="25" height="25" />
		<rect x="525" y="800" width="25" height="25" />
		<rect x="575" y="800" width="25" height="25" />
		<rect x="600" y="800" width="25" height="25" />
		<rect x="625" y="800" width="25" height="25" />
		<rect x="650" y="800" width="25" height="25" />
		<rect x="675" y="800" width="25" height="25" />
		<rect x="700" y="800" width="25" height="25" />
		<rect x="725" y="800" width="25" height="25" />
		<rect x="775" y="800" width="25" height="25" />
		<rect x="800" y="800" width="25" height="25" />
		<rect x="825" y="800" width="25" height="25" />
		<rect x="850" y="800" width="25" height="25" />
		<rect x="875" y="800" width="25" height="25" />
		<rect x="900" y="800" width="25" height="25" />
		<rect x="950" y="800" width="25" height="25" />
		<rect x="200" y="825" width="25" height="25" />
		<rect x="350" y="825" width="25" height="25" />
		<rect x="375" y="825" width="25" height="25" />
		<rect x="425" y="825" width="25" height="25" />
		<rect x="525" y="825" width="25" height="25" />
		<rect x="550" y="825" width="25" height="25" />
		<rect x="600" y="825" width="25" height="25" />
		<rect x="625" y="825" width="25" height="25" />
		<rect x="650" y="825" width="25" height="25" />
		<rect x="700" y="825" width="25" height="25" />
		<rect x="725" y="825" width="25" height="25" />
		<rect x="750" y="825" width="25" height="25" />
		<rect x="775" y="825" width="25" height="25" />
		<rect x="800" y="825" width="25" height="25" />
		<rect x="900" y="825" width="25" height="25" />
		<rect x="1000" y="825" width="25" height="25" />
		<rect x="250" y="850" width="25" height="25" />
		<rect x="375" y="850" width="25" height="25" />
		<rect x="425" y="850" width="25" height="25" />
		<rect x="450" y="850" width="25" height="25" />
		<rect x="500" y="850" width="25" height="25" />
		<rect x="525" y="850" width="25" height="25" />
		<rect x="625" y="850" width="25" height="25" />
		<rect x="675" y="850" width="25" height="25" />
		<rect x="725" y="850" width="25" height="25" />
		<rect x="775" y="850" width="25" height="25" />
		<rect x="800" y="850" width="25" height="25" />
		<rect x="850" y="850" width="25" height="25" />
		<rect x="900" y="850" width="25" height="25" />
		<rect x="925" y="850" width="25" height="25" />
		<rect x="950" y="850" width="25" height="25" />
		<rect x="225" y="875" width="25" height="25" />
		<rect x="250" y="875" width="25" height="25" />
		<rect x="275" y="875" width="25" height="25" />
		<rect x="375" y="875" width="25" height="25" />
		<rect x="425" y="875" width="25" height="25" />
		<rect x="500" y="875" width="25" height="25" />
		<rect x="550" y="875" width="25" height="25" />
		<rect x="650" y="875" width="25" height="25" />
		<rect x="675" y="875" width="25" height="25" />
		<rect x="700" y="875" width="25" height="25" />
		<rect x="725" y="875" width="25" height="25" />
		<rect x="750" y="875" width="25" height="25" />
		<rect x="775" y="875" width="25" height="25" />
		<rect x="800" y="875" width="25" height="25" />
		<rect x="900" y="875" width="25" height="25" />
		<rect x="925" y="875" width="25" height="25" />
		<rect x="975" y="875" width="25" height="25" />
		<rect x="1000" y="875" width="25" height="25" />
		<rect x="200" y="900" width="25" height="25" />
		<rect x="225" y="900" width="25" height="25" />
		<rect x="275" y="900" width="25" height="25" />
		<rect x="300" y="900" width="25" height="25" />
		<rect x="325" y="900" width="25" height="25" />
		<rect x="375" y="900" width="25" height="25" />
		<rect x="400" y="900" width="25" height="25" />
		<rect x="425" y="900" width="25" height="25" />
		<rect x="450" y="900" width="25" height="25" />
		<rect x="475" y="900" width="25" height="25" />
		<rect x="500" y="900" width="25" height="25" />
		<rect x="525" y="900" width="25" height="25" />
		<rect x="550" y="900" width="25" height="25" />
		<rect x="600" y="900" width="25" height="25" />
		<rect x="650" y="900" width="25" height="25" />
		<rect x="800" y="900" width="25" height="25" />
		<rect x="825" y="900" width="25" height="25" />
		<rect x="850" y="900" width="25" height="25" />
		<rect x="875" y="900" width="25" height="25" />
		<rect x="900" y="900" width="25" height="25" />
		<rect x="925" y="900" width="25" height="25" />
		<rect x="950" y="900" width="25" height="25" />
		<rect x="975" y="900" width="25" height="25" />
		<rect x="200" y="925" width="25" height="25" />
		<rect x="225" y="925" width="25" height="25" />
		<rect x="300" y="925" width="25" height="25" />
		<rect x="400" y="925" width="25" height="25" />
		<rect x="450" y="925" width="25" height="25" />
		<rect x="475" y="925" width="25" height="25" />
		<rect x="550" y="925" width="25" height="25" />
		<rect x="575" y="925" width="25" height="25" />
		<rect x="600" y="925" width="25" height="25" />
		<rect x="650" y="925" width="25" height="25" />
		<rect x="700" y="925" width="25" height="25" />
		<rect x="750" y="925" width="25" height="25" />
		<rect x="775" y="925" width="25" height="25" />
		<rect x="1000" y="925" width="25" height="25" />
		<rect x="200" y="950" width="25" height="25" />
		<rect x="225" y="950" width="25" height="25" />
		<rect x="275" y="950" width="25" height="25" />
		<rect x="375" y="950" width="25" height="25" />
		<rect x="400" y="950" width="25" height="25" />
		<rect x="450" y="950" width="25" height="25" />
		<rect x="525" y="950" width="25" height="25" />
		<rect x="600" y="950" width="25" height="25" />
		<rect x="625" y="950" width="25" height="25" />
		<rect x="650" y="950" width="25" height="25" />
		<rect x="675" y="950" width="25" height="25" />
		<rect x="700" y="950" width="25" height="25" />
		<rect x="750" y="950" width="25" height="25" />
		<rect x="775" y="950" width="25" height="25" />
		<rect x="800" y="950" width="25" height="25" />
		<rect x="825" y="950" width="25" height="25" />
		<rect x="850" y="950" width="25" height="25" />
		<rect x="875" y="950" width="25" height="25" />
		<rect x="900" y="950" width="25" height="25" />
		<rect x="925" y="950" width="25" height="25" />
		<rect x="950" y="950" width="25" height="25" />
		<rect x="975" y="950" width="25" height="25" />
		<rect x="225" y="975" width="25" height="25" />
		<rect x="275" y="975" width="25" height="25" />
		<rect x="350" y="975" width="25" height="25" />
		<rect x="425" y="975" width="25" height="25" />
		<rect x="450" y="975" width="25" height="25" />
		<rect x="475" y="975" width="25" height="25" />
		<rect x="500" y="975" width="25" height="25" />
		<rect x="575" y="975" width="25" height="25" />
		<rect x="675" y="975" width="25" height="25" />
		<rect x="700" y="975" width="25" height="25" />
		<rect x="800" y="975" width="25" height="25" />
		<rect x="825" y="975" width="25" height="25" />
		<rect x="900" y="975" width="25" height="25" />
		<rect x="925" y="975" width="25" height="25" />
		<rect x="975" y="975" width="25" height="25" />
		<rect x="275" y="1000" width="25" height="25" />
		<rect x="300" y="1000" width="25" height="25" />
		<rect x="325" y="1000" width="25" height="25" />
		<rect x="350" y="1000" width="25" height="25" />
		<rect x="375" y="1000" width="25" height="25" />
		<rect x="425" y="1000" width="25" height="25" />
		<rect x="450" y="1000" width="25" height="25" />
		<rect x="475" y="1000" width="25" height="25" />
		<rect x="500" y="1000" width="25" height="25" />
		<rect x="525" y="1000" width="25" height="25" />
		<rect x="550" y="1000" width="25" height="25" />
		<rect x="575" y="1000" width="25" height="25" />
		<rect x="600" y="1000" width="25" height="25" />
		<rect x="625" y="1000" width="25" height="25" />
		<rect x="700" y="1000" width="25" height="25" />
		<rect x="725" y="1000" width="25" height="25" />
		<rect x="775" y="1000" width="25" height="25" />
		<rect x="850" y="1000" width="25" height="25" />
		<rect x="875" y="1000" width="25" height="25" />
		<rect x="900" y="1000" width="25" height="25" />
		<rect x="950" y="1000" width="25" height="25" />

		<use href="#btc-qr-marker" x="0" y="0" />
		<use href="#btc-qr-marker" x="850" y="0" />
		<use href="#btc-qr-marker" x="0" y="850" />

		<rect x="50" y="50" width="75" height="75" />
		<rect x="900" y="50" width="75" height="75" />
		<rect x="50" y="900" width="75" height="75" />

		<svg x="350" y="350" width="325" height="325" viewBox="0 0 512 512">
		  <circle fill="#8100f0" cx="50%" cy="50%" r="256" />
			<svg x="13%" y="13%" width="74%" height="74%" viewBox="0 0 24 24">
				<path fill="#ffffff" d="M23.638 14.904c-1.602 6.43-8.113 10.34-14.542 8.736C2.67 22.05-1.244 15.525.362 9.105 1.962 2.67 8.475-1.243 14.9.358c6.43 1.605 10.342 8.115 8.738 14.548v-.002zm-6.35-4.613c.24-1.59-.974-2.45-2.64-3.03l.54-2.153-1.315-.33-.525 2.107c-.345-.087-.705-.167-1.064-.25l.526-2.127-1.32-.33-.54 2.165c-.285-.067-.565-.132-.84-.2l-1.815-.45-.35 1.407s.975.225.955.236c.535.136.63.486.615.766l-1.477 5.92c-.075.166-.24.406-.614.314.015.02-.96-.24-.96-.24l-.66 1.51 1.71.426.93.242-.54 2.19 1.32.327.54-2.17c.36.1.705.19 1.05.273l-.51 2.154 1.32.33.545-2.19c2.24.427 3.93.257 4.64-1.774.57-1.637-.03-2.58-1.217-3.196.854-.193 1.5-.76 1.68-1.93h.01zm-3.01 4.22c-.404 1.64-3.157.75-4.05.53l.72-2.9c.896.23 3.757.67 3.33 2.37zm.41-4.24c-.37 1.49-2.662.735-3.405.55l.654-2.64c.744.18 3.137.524 2.75 2.084v.006z" />
			</svg>
		</svg>
  </g>
</svg>
