<?xml version="1.0" standalone="no"?>
<!DOCTYPE svg PUBLIC "-//W3C//DTD SVG 20010904//EN"
 "http://www.w3.org/TR/2001/REC-SVG-20010904/DTD/svg10.dtd">
<svg version="1.0" xmlns="http://www.w3.org/2000/svg"
 width="512.000000pt" height="512.000000pt" viewBox="0 0 512.000000 512.000000"
 preserveAspectRatio="xMidYMid meet">
<metadata>
Created by potrace 1.14, written by Peter Selinger 2001-2017
</metadata>
<g transform="translate(0.000000,512.000000) scale(0.100000,-0.100000)"
fill="#000000" stroke="none">
<path d="M2397 5044 c-3 -3 -29 -7 -59 -10 -29 -2 -77 -9 -105 -15 -29 -6 -63
-12 -75 -13 -136 -17 -446 -137 -625 -242 -61 -36 -158 -98 -169 -109 -7 -5
-24 -19 -40 -30 -120 -87 -302 -262 -407 -395 -38 -47 -75 -93 -83 -103 -8 -9
-14 -21 -14 -26 0 -5 -3 -11 -8 -13 -11 -5 -85 -123 -139 -223 -100 -185 -181
-390 -229 -578 -20 -78 -33 -109 -59 -140 -34 -39 -80 -125 -72 -133 2 -3 19
-6 37 -9 18 -2 34 -5 35 -7 2 -2 -1 -23 -5 -48 -5 -25 -9 -65 -10 -89 l0 -43
44 4 c44 3 45 3 28 -17 -70 -82 -88 -144 -72 -249 13 -88 30 -140 91 -287 27
-64 51 -136 54 -160 5 -36 24 -133 40 -199 14 -59 47 -174 63 -222 11 -31 17
-60 14 -63 -4 -4 3 -2 15 6 25 15 43 50 43 82 0 12 -11 52 -24 89 -16 44 -19
65 -11 62 17 -7 55 -113 55 -153 0 -38 -15 -70 -43 -92 -21 -17 -21 -17 38
-142 l59 -126 41 5 c34 5 45 1 78 -26 66 -56 180 -251 159 -272 -5 -5 -21 18
-37 54 -56 126 -148 235 -192 226 -46 -9 -21 -72 76 -193 79 -98 146 -165 167
-165 9 0 33 -39 65 -107 28 -60 56 -115 63 -123 7 -8 28 -44 47 -80 82 -159
186 -286 263 -321 55 -25 94 -24 158 6 66 31 79 31 108 0 13 -14 30 -25 37
-25 8 0 24 -7 37 -15 25 -16 186 -78 186 -71 0 3 -17 15 -37 27 -43 27 -43 27
-138 104 -38 32 -103 91 -142 132 -40 41 -73 72 -73 69 0 -3 18 -42 40 -88 42
-88 45 -98 31 -98 -5 0 -36 56 -69 124 l-60 124 -40 -5 c-96 -13 -145 50 -327
422 -174 356 -231 447 -301 483 -18 9 -22 23 -27 89 -7 103 -35 179 -158 434
-111 234 -139 309 -139 383 0 42 4 53 34 80 l33 32 -58 122 c-32 67 -61 122
-66 122 -4 0 -21 -11 -36 -25 -23 -22 -27 -23 -27 -8 1 22 45 56 67 51 20 -4
38 -33 97 -160 l45 -97 -34 -42 c-61 -72 -48 -131 104 -448 123 -255 151 -331
158 -434 3 -42 10 -77 14 -77 19 0 83 -68 126 -134 25 -39 112 -206 193 -371
112 -229 158 -311 191 -347 46 -48 87 -67 119 -52 17 8 12 18 -48 101 -109
151 -185 287 -248 441 -19 48 -39 96 -44 107 -8 18 -22 61 -25 75 -1 3 -9 32
-20 65 -26 84 -26 85 -48 189 l-15 69 63 -64 c34 -35 77 -75 95 -89 19 -14 40
-32 48 -40 30 -31 198 -119 222 -117 3 0 14 -4 25 -10 11 -6 56 -14 100 -18
98 -9 85 -9 170 -1 82 8 115 15 115 25 0 4 7 8 15 8 19 0 96 34 113 50 7 7 26
20 42 30 17 9 30 23 30 30 0 7 4 13 10 13 14 0 72 88 88 135 15 43 22 73 27
120 2 17 4 30 5 30 10 0 15 169 6 184 -3 5 -8 33 -11 62 -10 93 -36 213 -51
236 -8 12 -14 28 -14 34 0 18 -61 139 -95 189 -73 107 -99 139 -141 176 -25
21 -61 54 -82 72 -20 17 -42 32 -49 32 -7 0 -13 4 -13 8 0 15 -132 79 -206
101 -70 21 -110 29 -153 30 -49 2 -13 9 94 20 398 39 1049 51 1505 26 295 -15
572 -36 566 -42 -2 -3 -19 -7 -38 -9 -94 -13 -308 -100 -308 -125 0 -5 -5 -9
-11 -9 -26 0 -203 -165 -214 -200 -3 -11 -10 -20 -14 -20 -18 0 -141 -217
-141 -249 0 -9 -6 -26 -14 -36 -13 -18 -38 -133 -50 -225 -2 -19 -7 -46 -10
-60 -8 -33 -8 -148 -1 -180 3 -14 8 -38 11 -55 9 -58 37 -155 45 -155 4 0 10
-9 14 -19 13 -42 155 -171 187 -171 8 0 18 -4 24 -8 18 -17 100 -41 159 -47
76 -8 134 -7 210 4 81 13 89 15 190 62 37 17 112 64 127 79 8 8 29 26 47 40
44 34 161 152 161 163 0 4 12 24 26 43 29 38 94 162 94 181 0 6 5 13 11 15 5
2 11 10 13 18 1 8 8 33 14 55 39 142 46 186 46 300 0 125 -3 154 -30 245 -8
30 -18 65 -21 78 -3 13 -12 26 -19 29 -8 3 -14 11 -14 19 0 8 -9 22 -20 31
-11 10 -20 22 -21 28 -1 22 -117 109 -174 131 -33 13 -55 23 -50 23 43 2 658
-105 714 -125 9 -3 10 -8 3 -17 -14 -18 -112 -213 -112 -224 0 -5 13 -16 29
-26 25 -14 56 -68 46 -79 -2 -1 -6 -20 -9 -42 -9 -57 -45 -139 -159 -366 -116
-230 -151 -328 -152 -413 0 -43 -4 -58 -16 -62 -47 -15 -149 -148 -221 -290
-20 -38 -79 -153 -131 -255 -123 -243 -166 -307 -225 -339 -27 -15 -75 -14
-90 1 -8 8 -15 8 -21 3 -11 -12 -141 -266 -141 -276 0 -3 15 -12 33 -19 17 -7
41 -16 53 -22 35 -17 92 -16 132 2 114 51 239 227 440 622 151 297 189 349
253 349 19 1 43 -1 54 -4 21 -5 17 -11 125 202 l32 64 -26 22 c-43 37 -47 71
-22 170 4 17 31 76 96 210 105 219 118 247 151 325 63 149 88 293 65 367 -3
10 -21 24 -39 31 -18 7 -47 26 -65 43 -44 43 -101 61 -302 98 -96 18 -247 45
-335 61 -89 17 -174 31 -190 31 -32 2 787 47 867 48 l46 1 7 -67 c8 -91 13
-113 27 -113 7 0 9 25 4 84 l-7 83 41 7 c22 3 40 9 40 13 0 21 -60 124 -90
153 -36 37 -93 80 -105 80 -3 0 5 -15 18 -32 13 -18 34 -61 45 -95 l21 -63
-22 0 c-11 0 -71 5 -131 10 -164 16 -539 28 -1311 45 -658 14 -1603 9 -2090
-10 -371 -15 -425 -17 -425 -13 0 32 80 118 110 118 6 0 9 4 6 8 -4 7 98 63
164 91 14 5 45 19 70 29 51 22 81 32 94 31 5 0 12 3 15 8 7 10 72 30 221 68
52 14 102 28 110 31 8 4 20 8 25 8 6 1 37 6 70 10 33 5 65 11 70 15 6 3 19 6
30 7 11 1 34 4 50 8 38 9 102 17 138 18 15 0 27 4 27 8 0 4 17 8 38 9 20 0 57
3 82 6 94 11 167 17 235 20 39 1 77 5 85 9 21 8 688 0 725 -9 17 -4 45 -8 63
-9 17 0 32 -3 32 -6 0 -4 19 -7 43 -8 23 -1 74 -5 112 -7 39 -3 99 -7 135 -10
36 -2 67 -5 70 -6 3 -1 19 -3 35 -4 17 -1 41 -5 55 -8 14 -3 43 -8 65 -11 136
-17 329 -49 395 -66 94 -24 100 -24 100 -5 0 8 -8 15 -18 15 -10 0 -22 4 -28
8 -16 14 -272 76 -364 88 -19 3 -42 6 -50 8 -14 3 -49 9 -115 22 -16 3 -79 11
-140 19 -60 8 -126 16 -145 19 -38 5 -137 14 -270 24 -211 16 -1064 6 -1193
-13 -18 -3 -61 -8 -97 -11 -36 -3 -76 -7 -90 -9 -75 -9 -135 -17 -154 -21 -12
-2 -43 -7 -71 -10 -54 -7 -80 -12 -80 -14 0 -2 -20 -5 -85 -16 -25 -4 -49 -8
-55 -10 -5 -1 -24 -6 -42 -9 l-32 -7 24 51 c14 28 25 56 25 62 0 6 6 23 14 37
8 15 39 78 70 141 61 120 150 273 195 331 14 19 34 46 43 60 9 14 28 39 43 55
14 17 45 52 68 79 67 78 128 137 218 213 87 73 230 173 247 173 6 0 12 3 14 8
3 6 134 76 148 78 3 0 19 6 35 13 53 23 139 52 185 62 25 6 54 13 65 15 121
30 390 26 535 -7 25 -6 54 -12 65 -15 125 -24 333 -108 464 -186 34 -21 65
-38 67 -38 6 0 145 -98 171 -120 13 -11 26 -20 29 -20 22 0 285 -267 363 -370
41 -53 58 -72 46 -50 -15 27 -98 135 -107 138 -4 2 -8 7 -8 12 0 22 -219 242
-325 327 -44 35 -89 71 -100 79 -47 38 -217 146 -303 192 -90 50 -251 116
-342 142 -25 7 -58 16 -74 21 -16 5 -40 9 -52 9 -13 0 -24 3 -24 8 0 4 -12 7
-27 8 -16 0 -53 5 -83 9 -63 9 -475 17 -483 9z m-984 -2111 c-7 -2 -19 -2 -25
0 -7 3 -2 5 12 5 14 0 19 -2 13 -5z m-76 -9 c-3 -3 -12 -4 -19 -1 -8 3 -5 6 6
6 11 1 17 -2 13 -5z m-72 -11 c-16 -3 -34 -8 -40 -13 -5 -4 -25 -11 -42 -15
-27 -5 -32 -4 -27 9 7 17 31 23 94 23 31 0 36 -1 15 -4z m261 -179 c101 -44
172 -107 230 -204 38 -64 38 -66 39 -170 0 -97 -2 -109 -27 -152 -21 -35 -37
-49 -65 -58 -21 -7 -42 -16 -48 -21 -14 -14 -49 -11 -71 6 -10 8 -31 15 -45
15 -15 0 -37 8 -50 18 -13 10 -43 26 -67 37 -31 13 -60 40 -103 94 -33 42 -64
81 -69 88 -6 7 -10 19 -10 27 0 8 -10 31 -22 51 -13 24 -22 56 -23 89 -2 84
28 136 100 174 96 51 124 52 231 6z m2216 18 c7 -6 20 -12 28 -14 35 -8 94
-69 107 -111 17 -58 -3 -187 -29 -187 -5 0 -8 -7 -8 -16 0 -22 -72 -127 -119
-173 -20 -20 -52 -43 -71 -51 -19 -7 -46 -22 -59 -32 -13 -10 -35 -18 -50 -18
-14 0 -35 -7 -45 -15 -22 -17 -57 -20 -71 -6 -6 5 -27 14 -48 21 -28 9 -44 23
-65 58 -25 43 -27 55 -27 152 1 101 2 107 34 160 44 73 107 151 115 143 3 -3
6 -1 6 5 0 11 144 85 185 95 31 8 103 1 117 -11z"/>
<path d="M2175 968 c-19 -49 93 -186 196 -242 60 -32 96 -40 182 -39 84 1 168
40 244 111 100 95 139 209 56 168 -134 -68 -300 -104 -388 -83 -22 5 -47 10
-55 12 -8 2 -26 8 -40 13 -14 5 -28 10 -32 11 -4 1 -25 9 -45 18 -21 8 -42 16
-48 18 -11 2 -46 16 -58 22 -4 2 -10 -2 -12 -9z"/>
</g>
</svg>
