<?xml version="1.0" standalone="no"?>
<!DOCTYPE svg PUBLIC "-//W3C//DTD SVG 20010904//EN"
 "http://www.w3.org/TR/2001/REC-SVG-20010904/DTD/svg10.dtd">
<svg version="1.0" xmlns="http://www.w3.org/2000/svg"
 width="400.000000pt" height="400.000000pt" viewBox="0 0 400.000000 400.000000"
 preserveAspectRatio="xMidYMid meet">
<metadata>
Created by potrace 1.11, written by Peter Selinger 2001-2013
</metadata>
<g transform="translate(0.000000,400.000000) scale(0.100000,-0.100000)"
fill="#000000" stroke="none">
<path d="M0 2000 l0 -2000 140 0 c127 0 140 2 140 18 0 9 113 130 250 267
l250 250 0 556 0 557 -385 385 c-356 356 -385 387 -385 419 0 31 38 72 538
572 296 296 546 542 555 547 9 6 319 8 731 7 l715 -3 705 -710 c665 -669 705
-712 706 -745 0 -34 -23 -59 -422 -460 l-423 -425 -961 0 -962 0 -153 154
-154 155 -3 -520 -2 -520 -253 -252 -252 -252 1813 0 1812 0 0 2000 0 2000
-2000 0 -2000 0 0 -2000z m540 -1295 l0 -205 -205 0 -205 0 0 205 0 205 205 0
205 0 0 -205z m1100 0 l0 -205 -205 0 -205 0 0 205 0 205 205 0 205 0 0 -205z
m820 0 l0 -205 -205 0 -205 0 0 205 0 205 205 0 205 0 0 -205z m820 0 l0 -205
-205 0 -205 0 0 205 0 205 205 0 205 0 0 -205z"/>
<path d="M717 2922 l-467 -467 518 -518 517 -517 870 0 870 0 350 350 350 350
-398 398 -397 397 0 -230 0 -230 -193 -193 -192 -192 -405 0 -405 0 -192 192
-193 193 0 467 0 468 -83 0 -82 0 -468 -468z"/>
<path d="M1790 3372 c0 -10 23 -40 50 -67 l50 -49 0 -296 0 -296 -50 -49 -50
-49 0 -68 0 -68 305 0 305 0 0 68 0 68 -50 49 -50 49 0 296 0 296 50 49 c89
87 96 85 -255 85 -286 0 -305 -1 -305 -18z"/>
</g>
</svg>
