<svg alt="Ethereum Donation" viewBox="0 0 1125 1125" fill="#000000" xml:space="preserve" xmlns="http://www.w3.org/2000/svg">
	<defs>
		<rect id="eth-qr-marker" x="13.125" y="13.125" width="148.75" height="148.75" fill="none" stroke="#000" stroke-width="26.25" />
	</defs>
	<rect x="0" y="0" width="1125" height="1125" fill="rgb(255,255,255)" />
	<g transform="translate(50,50)">
		<rect x="225" y="0" width="25" height="25" />
		<rect x="250" y="0" width="25" height="25" />
		<rect x="275" y="0" width="25" height="25" />
		<rect x="425" y="0" width="25" height="25" />
		<rect x="600" y="0" width="25" height="25" />
		<rect x="625" y="0" width="25" height="25" />
		<rect x="700" y="0" width="25" height="25" />
		<rect x="750" y="0" width="25" height="25" />
		<rect x="775" y="0" width="25" height="25" />
		<rect x="800" y="0" width="25" height="25" />
		<rect x="200" y="25" width="25" height="25" />
		<rect x="225" y="25" width="25" height="25" />
		<rect x="300" y="25" width="25" height="25" />
		<rect x="525" y="25" width="25" height="25" />
		<rect x="600" y="25" width="25" height="25" />
		<rect x="625" y="25" width="25" height="25" />
		<rect x="650" y="25" width="25" height="25" />
		<rect x="675" y="25" width="25" height="25" />
		<rect x="700" y="25" width="25" height="25" />
		<rect x="750" y="25" width="25" height="25" />
		<rect x="200" y="50" width="25" height="25" />
		<rect x="225" y="50" width="25" height="25" />
		<rect x="275" y="50" width="25" height="25" />
		<rect x="300" y="50" width="25" height="25" />
		<rect x="450" y="50" width="25" height="25" />
		<rect x="500" y="50" width="25" height="25" />
		<rect x="525" y="50" width="25" height="25" />
		<rect x="575" y="50" width="25" height="25" />
		<rect x="600" y="50" width="25" height="25" />
		<rect x="625" y="50" width="25" height="25" />
		<rect x="675" y="50" width="25" height="25" />
		<rect x="250" y="75" width="25" height="25" />
		<rect x="275" y="75" width="25" height="25" />
		<rect x="300" y="75" width="25" height="25" />
		<rect x="400" y="75" width="25" height="25" />
		<rect x="475" y="75" width="25" height="25" />
		<rect x="550" y="75" width="25" height="25" />
		<rect x="575" y="75" width="25" height="25" />
		<rect x="600" y="75" width="25" height="25" />
		<rect x="650" y="75" width="25" height="25" />
		<rect x="675" y="75" width="25" height="25" />
		<rect x="700" y="75" width="25" height="25" />
		<rect x="750" y="75" width="25" height="25" />
		<rect x="775" y="75" width="25" height="25" />
		<rect x="800" y="75" width="25" height="25" />
		<rect x="250" y="100" width="25" height="25" />
		<rect x="350" y="100" width="25" height="25" />
		<rect x="450" y="100" width="25" height="25" />
		<rect x="475" y="100" width="25" height="25" />
		<rect x="500" y="100" width="25" height="25" />
		<rect x="525" y="100" width="25" height="25" />
		<rect x="550" y="100" width="25" height="25" />
		<rect x="575" y="100" width="25" height="25" />
		<rect x="625" y="100" width="25" height="25" />
		<rect x="725" y="100" width="25" height="25" />
		<rect x="775" y="100" width="25" height="25" />
		<rect x="200" y="125" width="25" height="25" />
		<rect x="225" y="125" width="25" height="25" />
		<rect x="275" y="125" width="25" height="25" />
		<rect x="300" y="125" width="25" height="25" />
		<rect x="400" y="125" width="25" height="25" />
		<rect x="450" y="125" width="25" height="25" />
		<rect x="500" y="125" width="25" height="25" />
		<rect x="650" y="125" width="25" height="25" />
		<rect x="675" y="125" width="25" height="25" />
		<rect x="700" y="125" width="25" height="25" />
		<rect x="725" y="125" width="25" height="25" />
		<rect x="750" y="125" width="25" height="25" />
		<rect x="200" y="150" width="25" height="25" />
		<rect x="250" y="150" width="25" height="25" />
		<rect x="300" y="150" width="25" height="25" />
		<rect x="350" y="150" width="25" height="25" />
		<rect x="400" y="150" width="25" height="25" />
		<rect x="450" y="150" width="25" height="25" />
		<rect x="500" y="150" width="25" height="25" />
		<rect x="550" y="150" width="25" height="25" />
		<rect x="600" y="150" width="25" height="25" />
		<rect x="650" y="150" width="25" height="25" />
		<rect x="700" y="150" width="25" height="25" />
		<rect x="750" y="150" width="25" height="25" />
		<rect x="800" y="150" width="25" height="25" />
		<rect x="200" y="175" width="25" height="25" />
		<rect x="250" y="175" width="25" height="25" />
		<rect x="275" y="175" width="25" height="25" />
		<rect x="350" y="175" width="25" height="25" />
		<rect x="375" y="175" width="25" height="25" />
		<rect x="400" y="175" width="25" height="25" />
		<rect x="425" y="175" width="25" height="25" />
		<rect x="450" y="175" width="25" height="25" />
		<rect x="525" y="175" width="25" height="25" />
		<rect x="600" y="175" width="25" height="25" />
		<rect x="625" y="175" width="25" height="25" />
		<rect x="675" y="175" width="25" height="25" />
		<rect x="700" y="175" width="25" height="25" />
		<rect x="750" y="175" width="25" height="25" />
		<rect x="775" y="175" width="25" height="25" />
		<rect x="800" y="175" width="25" height="25" />
		<rect x="50" y="200" width="25" height="25" />
		<rect x="75" y="200" width="25" height="25" />
		<rect x="100" y="200" width="25" height="25" />
		<rect x="150" y="200" width="25" height="25" />
		<rect x="200" y="200" width="25" height="25" />
		<rect x="275" y="200" width="25" height="25" />
		<rect x="300" y="200" width="25" height="25" />
		<rect x="350" y="200" width="25" height="25" />
		<rect x="375" y="200" width="25" height="25" />
		<rect x="400" y="200" width="25" height="25" />
		<rect x="475" y="200" width="25" height="25" />
		<rect x="550" y="200" width="25" height="25" />
		<rect x="650" y="200" width="25" height="25" />
		<rect x="675" y="200" width="25" height="25" />
		<rect x="700" y="200" width="25" height="25" />
		<rect x="725" y="200" width="25" height="25" />
		<rect x="750" y="200" width="25" height="25" />
		<rect x="800" y="200" width="25" height="25" />
		<rect x="825" y="200" width="25" height="25" />
		<rect x="850" y="200" width="25" height="25" />
		<rect x="875" y="200" width="25" height="25" />
		<rect x="950" y="200" width="25" height="25" />
		<rect x="975" y="200" width="25" height="25" />
		<rect x="1000" y="200" width="25" height="25" />
		<rect x="100" y="225" width="25" height="25" />
		<rect x="175" y="225" width="25" height="25" />
		<rect x="225" y="225" width="25" height="25" />
		<rect x="250" y="225" width="25" height="25" />
		<rect x="300" y="225" width="25" height="25" />
		<rect x="325" y="225" width="25" height="25" />
		<rect x="350" y="225" width="25" height="25" />
		<rect x="375" y="225" width="25" height="25" />
		<rect x="400" y="225" width="25" height="25" />
		<rect x="450" y="225" width="25" height="25" />
		<rect x="525" y="225" width="25" height="25" />
		<rect x="625" y="225" width="25" height="25" />
		<rect x="650" y="225" width="25" height="25" />
		<rect x="725" y="225" width="25" height="25" />
		<rect x="775" y="225" width="25" height="25" />
		<rect x="825" y="225" width="25" height="25" />
		<rect x="850" y="225" width="25" height="25" />
		<rect x="875" y="225" width="25" height="25" />
		<rect x="900" y="225" width="25" height="25" />
		<rect x="925" y="225" width="25" height="25" />
		<rect x="1000" y="225" width="25" height="25" />
		<rect x="0" y="250" width="25" height="25" />
		<rect x="25" y="250" width="25" height="25" />
		<rect x="125" y="250" width="25" height="25" />
		<rect x="150" y="250" width="25" height="25" />
		<rect x="175" y="250" width="25" height="25" />
		<rect x="250" y="250" width="25" height="25" />
		<rect x="275" y="250" width="25" height="25" />
		<rect x="425" y="250" width="25" height="25" />
		<rect x="525" y="250" width="25" height="25" />
		<rect x="575" y="250" width="25" height="25" />
		<rect x="600" y="250" width="25" height="25" />
		<rect x="650" y="250" width="25" height="25" />
		<rect x="675" y="250" width="25" height="25" />
		<rect x="700" y="250" width="25" height="25" />
		<rect x="750" y="250" width="25" height="25" />
		<rect x="800" y="250" width="25" height="25" />
		<rect x="875" y="250" width="25" height="25" />
		<rect x="900" y="250" width="25" height="25" />
		<rect x="925" y="250" width="25" height="25" />
		<rect x="975" y="250" width="25" height="25" />
		<rect x="75" y="275" width="25" height="25" />
		<rect x="200" y="275" width="25" height="25" />
		<rect x="250" y="275" width="25" height="25" />
		<rect x="325" y="275" width="25" height="25" />
		<rect x="400" y="275" width="25" height="25" />
		<rect x="425" y="275" width="25" height="25" />
		<rect x="450" y="275" width="25" height="25" />
		<rect x="475" y="275" width="25" height="25" />
		<rect x="500" y="275" width="25" height="25" />
		<rect x="550" y="275" width="25" height="25" />
		<rect x="575" y="275" width="25" height="25" />
		<rect x="600" y="275" width="25" height="25" />
		<rect x="625" y="275" width="25" height="25" />
		<rect x="700" y="275" width="25" height="25" />
		<rect x="800" y="275" width="25" height="25" />
		<rect x="825" y="275" width="25" height="25" />
		<rect x="850" y="275" width="25" height="25" />
		<rect x="900" y="275" width="25" height="25" />
		<rect x="925" y="275" width="25" height="25" />
		<rect x="1000" y="275" width="25" height="25" />
		<rect x="25" y="300" width="25" height="25" />
		<rect x="50" y="300" width="25" height="25" />
		<rect x="100" y="300" width="25" height="25" />
		<rect x="125" y="300" width="25" height="25" />
		<rect x="150" y="300" width="25" height="25" />
		<rect x="175" y="300" width="25" height="25" />
		<rect x="250" y="300" width="25" height="25" />
		<rect x="275" y="300" width="25" height="25" />
		<rect x="325" y="300" width="25" height="25" />
		<rect x="350" y="300" width="25" height="25" />
		<rect x="375" y="300" width="25" height="25" />
		<rect x="400" y="300" width="25" height="25" />
		<rect x="425" y="300" width="25" height="25" />
		<rect x="450" y="300" width="25" height="25" />
		<rect x="475" y="300" width="25" height="25" />
		<rect x="500" y="300" width="25" height="25" />
		<rect x="525" y="300" width="25" height="25" />
		<rect x="550" y="300" width="25" height="25" />
		<rect x="650" y="300" width="25" height="25" />
		<rect x="675" y="300" width="25" height="25" />
		<rect x="700" y="300" width="25" height="25" />
		<rect x="725" y="300" width="25" height="25" />
		<rect x="750" y="300" width="25" height="25" />
		<rect x="775" y="300" width="25" height="25" />
		<rect x="825" y="300" width="25" height="25" />
		<rect x="925" y="300" width="25" height="25" />
		<rect x="950" y="300" width="25" height="25" />
		<rect x="975" y="300" width="25" height="25" />
		<rect x="0" y="325" width="25" height="25" />
		<rect x="100" y="325" width="25" height="25" />
		<rect x="125" y="325" width="25" height="25" />
		<rect x="175" y="325" width="25" height="25" />
		<rect x="200" y="325" width="25" height="25" />
		<rect x="350" y="325" width="25" height="25" />
		<rect x="525" y="325" width="25" height="25" />
		<rect x="625" y="325" width="25" height="25" />
		<rect x="650" y="325" width="25" height="25" />
		<rect x="675" y="325" width="25" height="25" />
		<rect x="800" y="325" width="25" height="25" />
		<rect x="850" y="325" width="25" height="25" />
		<rect x="875" y="325" width="25" height="25" />
		<rect x="900" y="325" width="25" height="25" />
		<rect x="925" y="325" width="25" height="25" />
		<rect x="1000" y="325" width="25" height="25" />
		<rect x="0" y="350" width="25" height="25" />
		<rect x="75" y="350" width="25" height="25" />
		<rect x="150" y="350" width="25" height="25" />
		<rect x="250" y="350" width="25" height="25" />
		<rect x="300" y="350" width="25" height="25" />
		<rect x="375" y="350" width="25" height="25" />
		<rect x="400" y="350" width="25" height="25" />
		<rect x="425" y="350" width="25" height="25" />
		<rect x="525" y="350" width="25" height="25" />
		<rect x="550" y="350" width="25" height="25" />
		<rect x="575" y="350" width="25" height="25" />
		<rect x="600" y="350" width="25" height="25" />
		<rect x="675" y="350" width="25" height="25" />
		<rect x="700" y="350" width="25" height="25" />
		<rect x="725" y="350" width="25" height="25" />
		<rect x="750" y="350" width="25" height="25" />
		<rect x="775" y="350" width="25" height="25" />
		<rect x="825" y="350" width="25" height="25" />
		<rect x="875" y="350" width="25" height="25" />
		<rect x="900" y="350" width="25" height="25" />
		<rect x="975" y="350" width="25" height="25" />
		<rect x="0" y="375" width="25" height="25" />
		<rect x="25" y="375" width="25" height="25" />
		<rect x="75" y="375" width="25" height="25" />
		<rect x="100" y="375" width="25" height="25" />
		<rect x="200" y="375" width="25" height="25" />
		<rect x="275" y="375" width="25" height="25" />
		<rect x="375" y="375" width="25" height="25" />
		<rect x="425" y="375" width="25" height="25" />
		<rect x="450" y="375" width="25" height="25" />
		<rect x="475" y="375" width="25" height="25" />
		<rect x="550" y="375" width="25" height="25" />
		<rect x="575" y="375" width="25" height="25" />
		<rect x="600" y="375" width="25" height="25" />
		<rect x="625" y="375" width="25" height="25" />
		<rect x="675" y="375" width="25" height="25" />
		<rect x="775" y="375" width="25" height="25" />
		<rect x="800" y="375" width="25" height="25" />
		<rect x="825" y="375" width="25" height="25" />
		<rect x="850" y="375" width="25" height="25" />
		<rect x="900" y="375" width="25" height="25" />
		<rect x="975" y="375" width="25" height="25" />
		<rect x="0" y="400" width="25" height="25" />
		<rect x="25" y="400" width="25" height="25" />
		<rect x="100" y="400" width="25" height="25" />
		<rect x="125" y="400" width="25" height="25" />
		<rect x="150" y="400" width="25" height="25" />
		<rect x="225" y="400" width="25" height="25" />
		<rect x="275" y="400" width="25" height="25" />
		<rect x="325" y="400" width="25" height="25" />
		<rect x="425" y="400" width="25" height="25" />
		<rect x="450" y="400" width="25" height="25" />
		<rect x="475" y="400" width="25" height="25" />
		<rect x="575" y="400" width="25" height="25" />
		<rect x="625" y="400" width="25" height="25" />
		<rect x="675" y="400" width="25" height="25" />
		<rect x="700" y="400" width="25" height="25" />
		<rect x="725" y="400" width="25" height="25" />
		<rect x="750" y="400" width="25" height="25" />
		<rect x="775" y="400" width="25" height="25" />
		<rect x="800" y="400" width="25" height="25" />
		<rect x="875" y="400" width="25" height="25" />
		<rect x="925" y="400" width="25" height="25" />
		<rect x="950" y="400" width="25" height="25" />
		<rect x="0" y="425" width="25" height="25" />
		<rect x="25" y="425" width="25" height="25" />
		<rect x="50" y="425" width="25" height="25" />
		<rect x="75" y="425" width="25" height="25" />
		<rect x="100" y="425" width="25" height="25" />
		<rect x="175" y="425" width="25" height="25" />
		<rect x="225" y="425" width="25" height="25" />
		<rect x="275" y="425" width="25" height="25" />
		<rect x="325" y="425" width="25" height="25" />
		<rect x="375" y="425" width="25" height="25" />
		<rect x="400" y="425" width="25" height="25" />
		<rect x="425" y="425" width="25" height="25" />
		<rect x="500" y="425" width="25" height="25" />
		<rect x="550" y="425" width="25" height="25" />
		<rect x="625" y="425" width="25" height="25" />
		<rect x="650" y="425" width="25" height="25" />
		<rect x="725" y="425" width="25" height="25" />
		<rect x="775" y="425" width="25" height="25" />
		<rect x="825" y="425" width="25" height="25" />
		<rect x="850" y="425" width="25" height="25" />
		<rect x="875" y="425" width="25" height="25" />
		<rect x="900" y="425" width="25" height="25" />
		<rect x="1000" y="425" width="25" height="25" />
		<rect x="0" y="450" width="25" height="25" />
		<rect x="50" y="450" width="25" height="25" />
		<rect x="125" y="450" width="25" height="25" />
		<rect x="150" y="450" width="25" height="25" />
		<rect x="175" y="450" width="25" height="25" />
		<rect x="250" y="450" width="25" height="25" />
		<rect x="275" y="450" width="25" height="25" />
		<rect x="375" y="450" width="25" height="25" />
		<rect x="450" y="450" width="25" height="25" />
		<rect x="475" y="450" width="25" height="25" />
		<rect x="525" y="450" width="25" height="25" />
		<rect x="550" y="450" width="25" height="25" />
		<rect x="625" y="450" width="25" height="25" />
		<rect x="675" y="450" width="25" height="25" />
		<rect x="725" y="450" width="25" height="25" />
		<rect x="875" y="450" width="25" height="25" />
		<rect x="900" y="450" width="25" height="25" />
		<rect x="925" y="450" width="25" height="25" />
		<rect x="950" y="450" width="25" height="25" />
		<rect x="975" y="450" width="25" height="25" />
		<rect x="0" y="475" width="25" height="25" />
		<rect x="25" y="475" width="25" height="25" />
		<rect x="50" y="475" width="25" height="25" />
		<rect x="75" y="475" width="25" height="25" />
		<rect x="125" y="475" width="25" height="25" />
		<rect x="200" y="475" width="25" height="25" />
		<rect x="250" y="475" width="25" height="25" />
		<rect x="275" y="475" width="25" height="25" />
		<rect x="300" y="475" width="25" height="25" />
		<rect x="325" y="475" width="25" height="25" />
		<rect x="350" y="475" width="25" height="25" />
		<rect x="375" y="475" width="25" height="25" />
		<rect x="425" y="475" width="25" height="25" />
		<rect x="500" y="475" width="25" height="25" />
		<rect x="575" y="475" width="25" height="25" />
		<rect x="600" y="475" width="25" height="25" />
		<rect x="650" y="475" width="25" height="25" />
		<rect x="700" y="475" width="25" height="25" />
		<rect x="725" y="475" width="25" height="25" />
		<rect x="750" y="475" width="25" height="25" />
		<rect x="775" y="475" width="25" height="25" />
		<rect x="825" y="475" width="25" height="25" />
		<rect x="875" y="475" width="25" height="25" />
		<rect x="900" y="475" width="25" height="25" />
		<rect x="925" y="475" width="25" height="25" />
		<rect x="975" y="475" width="25" height="25" />
		<rect x="25" y="500" width="25" height="25" />
		<rect x="100" y="500" width="25" height="25" />
		<rect x="125" y="500" width="25" height="25" />
		<rect x="150" y="500" width="25" height="25" />
		<rect x="200" y="500" width="25" height="25" />
		<rect x="225" y="500" width="25" height="25" />
		<rect x="250" y="500" width="25" height="25" />
		<rect x="325" y="500" width="25" height="25" />
		<rect x="400" y="500" width="25" height="25" />
		<rect x="450" y="500" width="25" height="25" />
		<rect x="525" y="500" width="25" height="25" />
		<rect x="550" y="500" width="25" height="25" />
		<rect x="600" y="500" width="25" height="25" />
		<rect x="625" y="500" width="25" height="25" />
		<rect x="650" y="500" width="25" height="25" />
		<rect x="675" y="500" width="25" height="25" />
		<rect x="900" y="500" width="25" height="25" />
		<rect x="25" y="525" width="25" height="25" />
		<rect x="100" y="525" width="25" height="25" />
		<rect x="125" y="525" width="25" height="25" />
		<rect x="175" y="525" width="25" height="25" />
		<rect x="225" y="525" width="25" height="25" />
		<rect x="250" y="525" width="25" height="25" />
		<rect x="300" y="525" width="25" height="25" />
		<rect x="325" y="525" width="25" height="25" />
		<rect x="400" y="525" width="25" height="25" />
		<rect x="425" y="525" width="25" height="25" />
		<rect x="500" y="525" width="25" height="25" />
		<rect x="525" y="525" width="25" height="25" />
		<rect x="550" y="525" width="25" height="25" />
		<rect x="700" y="525" width="25" height="25" />
		<rect x="750" y="525" width="25" height="25" />
		<rect x="775" y="525" width="25" height="25" />
		<rect x="800" y="525" width="25" height="25" />
		<rect x="825" y="525" width="25" height="25" />
		<rect x="875" y="525" width="25" height="25" />
		<rect x="900" y="525" width="25" height="25" />
		<rect x="975" y="525" width="25" height="25" />
		<rect x="1000" y="525" width="25" height="25" />
		<rect x="50" y="550" width="25" height="25" />
		<rect x="150" y="550" width="25" height="25" />
		<rect x="175" y="550" width="25" height="25" />
		<rect x="200" y="550" width="25" height="25" />
		<rect x="300" y="550" width="25" height="25" />
		<rect x="325" y="550" width="25" height="25" />
		<rect x="375" y="550" width="25" height="25" />
		<rect x="425" y="550" width="25" height="25" />
		<rect x="525" y="550" width="25" height="25" />
		<rect x="575" y="550" width="25" height="25" />
		<rect x="600" y="550" width="25" height="25" />
		<rect x="625" y="550" width="25" height="25" />
		<rect x="650" y="550" width="25" height="25" />
		<rect x="675" y="550" width="25" height="25" />
		<rect x="700" y="550" width="25" height="25" />
		<rect x="750" y="550" width="25" height="25" />
		<rect x="825" y="550" width="25" height="25" />
		<rect x="875" y="550" width="25" height="25" />
		<rect x="900" y="550" width="25" height="25" />
		<rect x="925" y="550" width="25" height="25" />
		<rect x="950" y="550" width="25" height="25" />
		<rect x="50" y="575" width="25" height="25" />
		<rect x="100" y="575" width="25" height="25" />
		<rect x="175" y="575" width="25" height="25" />
		<rect x="300" y="575" width="25" height="25" />
		<rect x="350" y="575" width="25" height="25" />
		<rect x="375" y="575" width="25" height="25" />
		<rect x="425" y="575" width="25" height="25" />
		<rect x="500" y="575" width="25" height="25" />
		<rect x="525" y="575" width="25" height="25" />
		<rect x="550" y="575" width="25" height="25" />
		<rect x="575" y="575" width="25" height="25" />
		<rect x="625" y="575" width="25" height="25" />
		<rect x="650" y="575" width="25" height="25" />
		<rect x="750" y="575" width="25" height="25" />
		<rect x="775" y="575" width="25" height="25" />
		<rect x="875" y="575" width="25" height="25" />
		<rect x="900" y="575" width="25" height="25" />
		<rect x="925" y="575" width="25" height="25" />
		<rect x="1000" y="575" width="25" height="25" />
		<rect x="75" y="600" width="25" height="25" />
		<rect x="150" y="600" width="25" height="25" />
		<rect x="175" y="600" width="25" height="25" />
		<rect x="200" y="600" width="25" height="25" />
		<rect x="250" y="600" width="25" height="25" />
		<rect x="425" y="600" width="25" height="25" />
		<rect x="450" y="600" width="25" height="25" />
		<rect x="475" y="600" width="25" height="25" />
		<rect x="525" y="600" width="25" height="25" />
		<rect x="550" y="600" width="25" height="25" />
		<rect x="575" y="600" width="25" height="25" />
		<rect x="675" y="600" width="25" height="25" />
		<rect x="700" y="600" width="25" height="25" />
		<rect x="725" y="600" width="25" height="25" />
		<rect x="825" y="600" width="25" height="25" />
		<rect x="875" y="600" width="25" height="25" />
		<rect x="950" y="600" width="25" height="25" />
		<rect x="975" y="600" width="25" height="25" />
		<rect x="0" y="625" width="25" height="25" />
		<rect x="75" y="625" width="25" height="25" />
		<rect x="125" y="625" width="25" height="25" />
		<rect x="175" y="625" width="25" height="25" />
		<rect x="250" y="625" width="25" height="25" />
		<rect x="275" y="625" width="25" height="25" />
		<rect x="325" y="625" width="25" height="25" />
		<rect x="350" y="625" width="25" height="25" />
		<rect x="375" y="625" width="25" height="25" />
		<rect x="450" y="625" width="25" height="25" />
		<rect x="500" y="625" width="25" height="25" />
		<rect x="525" y="625" width="25" height="25" />
		<rect x="550" y="625" width="25" height="25" />
		<rect x="575" y="625" width="25" height="25" />
		<rect x="625" y="625" width="25" height="25" />
		<rect x="775" y="625" width="25" height="25" />
		<rect x="800" y="625" width="25" height="25" />
		<rect x="850" y="625" width="25" height="25" />
		<rect x="900" y="625" width="25" height="25" />
		<rect x="925" y="625" width="25" height="25" />
		<rect x="975" y="625" width="25" height="25" />
		<rect x="50" y="650" width="25" height="25" />
		<rect x="125" y="650" width="25" height="25" />
		<rect x="150" y="650" width="25" height="25" />
		<rect x="200" y="650" width="25" height="25" />
		<rect x="275" y="650" width="25" height="25" />
		<rect x="350" y="650" width="25" height="25" />
		<rect x="375" y="650" width="25" height="25" />
		<rect x="500" y="650" width="25" height="25" />
		<rect x="575" y="650" width="25" height="25" />
		<rect x="600" y="650" width="25" height="25" />
		<rect x="625" y="650" width="25" height="25" />
		<rect x="675" y="650" width="25" height="25" />
		<rect x="725" y="650" width="25" height="25" />
		<rect x="800" y="650" width="25" height="25" />
		<rect x="50" y="675" width="25" height="25" />
		<rect x="100" y="675" width="25" height="25" />
		<rect x="225" y="675" width="25" height="25" />
		<rect x="275" y="675" width="25" height="25" />
		<rect x="300" y="675" width="25" height="25" />
		<rect x="375" y="675" width="25" height="25" />
		<rect x="450" y="675" width="25" height="25" />
		<rect x="475" y="675" width="25" height="25" />
		<rect x="550" y="675" width="25" height="25" />
		<rect x="575" y="675" width="25" height="25" />
		<rect x="600" y="675" width="25" height="25" />
		<rect x="700" y="675" width="25" height="25" />
		<rect x="800" y="675" width="25" height="25" />
		<rect x="900" y="675" width="25" height="25" />
		<rect x="925" y="675" width="25" height="25" />
		<rect x="1000" y="675" width="25" height="25" />
		<rect x="0" y="700" width="25" height="25" />
		<rect x="25" y="700" width="25" height="25" />
		<rect x="50" y="700" width="25" height="25" />
		<rect x="75" y="700" width="25" height="25" />
		<rect x="100" y="700" width="25" height="25" />
		<rect x="150" y="700" width="25" height="25" />
		<rect x="175" y="700" width="25" height="25" />
		<rect x="200" y="700" width="25" height="25" />
		<rect x="300" y="700" width="25" height="25" />
		<rect x="325" y="700" width="25" height="25" />
		<rect x="350" y="700" width="25" height="25" />
		<rect x="400" y="700" width="25" height="25" />
		<rect x="425" y="700" width="25" height="25" />
		<rect x="500" y="700" width="25" height="25" />
		<rect x="650" y="700" width="25" height="25" />
		<rect x="675" y="700" width="25" height="25" />
		<rect x="725" y="700" width="25" height="25" />
		<rect x="750" y="700" width="25" height="25" />
		<rect x="825" y="700" width="25" height="25" />
		<rect x="875" y="700" width="25" height="25" />
		<rect x="950" y="700" width="25" height="25" />
		<rect x="975" y="700" width="25" height="25" />
		<rect x="0" y="725" width="25" height="25" />
		<rect x="50" y="725" width="25" height="25" />
		<rect x="125" y="725" width="25" height="25" />
		<rect x="175" y="725" width="25" height="25" />
		<rect x="250" y="725" width="25" height="25" />
		<rect x="350" y="725" width="25" height="25" />
		<rect x="375" y="725" width="25" height="25" />
		<rect x="400" y="725" width="25" height="25" />
		<rect x="425" y="725" width="25" height="25" />
		<rect x="500" y="725" width="25" height="25" />
		<rect x="525" y="725" width="25" height="25" />
		<rect x="575" y="725" width="25" height="25" />
		<rect x="675" y="725" width="25" height="25" />
		<rect x="700" y="725" width="25" height="25" />
		<rect x="850" y="725" width="25" height="25" />
		<rect x="900" y="725" width="25" height="25" />
		<rect x="1000" y="725" width="25" height="25" />
		<rect x="0" y="750" width="25" height="25" />
		<rect x="50" y="750" width="25" height="25" />
		<rect x="100" y="750" width="25" height="25" />
		<rect x="125" y="750" width="25" height="25" />
		<rect x="150" y="750" width="25" height="25" />
		<rect x="175" y="750" width="25" height="25" />
		<rect x="200" y="750" width="25" height="25" />
		<rect x="250" y="750" width="25" height="25" />
		<rect x="325" y="750" width="25" height="25" />
		<rect x="350" y="750" width="25" height="25" />
		<rect x="425" y="750" width="25" height="25" />
		<rect x="475" y="750" width="25" height="25" />
		<rect x="525" y="750" width="25" height="25" />
		<rect x="575" y="750" width="25" height="25" />
		<rect x="625" y="750" width="25" height="25" />
		<rect x="650" y="750" width="25" height="25" />
		<rect x="875" y="750" width="25" height="25" />
		<rect x="900" y="750" width="25" height="25" />
		<rect x="925" y="750" width="25" height="25" />
		<rect x="975" y="750" width="25" height="25" />
		<rect x="0" y="775" width="25" height="25" />
		<rect x="75" y="775" width="25" height="25" />
		<rect x="125" y="775" width="25" height="25" />
		<rect x="175" y="775" width="25" height="25" />
		<rect x="200" y="775" width="25" height="25" />
		<rect x="250" y="775" width="25" height="25" />
		<rect x="300" y="775" width="25" height="25" />
		<rect x="325" y="775" width="25" height="25" />
		<rect x="350" y="775" width="25" height="25" />
		<rect x="475" y="775" width="25" height="25" />
		<rect x="525" y="775" width="25" height="25" />
		<rect x="600" y="775" width="25" height="25" />
		<rect x="625" y="775" width="25" height="25" />
		<rect x="650" y="775" width="25" height="25" />
		<rect x="700" y="775" width="25" height="25" />
		<rect x="750" y="775" width="25" height="25" />
		<rect x="800" y="775" width="25" height="25" />
		<rect x="1000" y="775" width="25" height="25" />
		<rect x="0" y="800" width="25" height="25" />
		<rect x="75" y="800" width="25" height="25" />
		<rect x="150" y="800" width="25" height="25" />
		<rect x="175" y="800" width="25" height="25" />
		<rect x="225" y="800" width="25" height="25" />
		<rect x="250" y="800" width="25" height="25" />
		<rect x="275" y="800" width="25" height="25" />
		<rect x="300" y="800" width="25" height="25" />
		<rect x="350" y="800" width="25" height="25" />
		<rect x="400" y="800" width="25" height="25" />
		<rect x="450" y="800" width="25" height="25" />
		<rect x="525" y="800" width="25" height="25" />
		<rect x="575" y="800" width="25" height="25" />
		<rect x="625" y="800" width="25" height="25" />
		<rect x="650" y="800" width="25" height="25" />
		<rect x="725" y="800" width="25" height="25" />
		<rect x="800" y="800" width="25" height="25" />
		<rect x="825" y="800" width="25" height="25" />
		<rect x="850" y="800" width="25" height="25" />
		<rect x="875" y="800" width="25" height="25" />
		<rect x="900" y="800" width="25" height="25" />
		<rect x="925" y="800" width="25" height="25" />
		<rect x="950" y="800" width="25" height="25" />
		<rect x="200" y="825" width="25" height="25" />
		<rect x="225" y="825" width="25" height="25" />
		<rect x="300" y="825" width="25" height="25" />
		<rect x="350" y="825" width="25" height="25" />
		<rect x="375" y="825" width="25" height="25" />
		<rect x="400" y="825" width="25" height="25" />
		<rect x="425" y="825" width="25" height="25" />
		<rect x="450" y="825" width="25" height="25" />
		<rect x="525" y="825" width="25" height="25" />
		<rect x="625" y="825" width="25" height="25" />
		<rect x="700" y="825" width="25" height="25" />
		<rect x="750" y="825" width="25" height="25" />
		<rect x="800" y="825" width="25" height="25" />
		<rect x="900" y="825" width="25" height="25" />
		<rect x="925" y="825" width="25" height="25" />
		<rect x="975" y="825" width="25" height="25" />
		<rect x="250" y="850" width="25" height="25" />
		<rect x="325" y="850" width="25" height="25" />
		<rect x="350" y="850" width="25" height="25" />
		<rect x="425" y="850" width="25" height="25" />
		<rect x="450" y="850" width="25" height="25" />
		<rect x="475" y="850" width="25" height="25" />
		<rect x="500" y="850" width="25" height="25" />
		<rect x="550" y="850" width="25" height="25" />
		<rect x="625" y="850" width="25" height="25" />
		<rect x="650" y="850" width="25" height="25" />
		<rect x="675" y="850" width="25" height="25" />
		<rect x="700" y="850" width="25" height="25" />
		<rect x="750" y="850" width="25" height="25" />
		<rect x="800" y="850" width="25" height="25" />
		<rect x="850" y="850" width="25" height="25" />
		<rect x="900" y="850" width="25" height="25" />
		<rect x="225" y="875" width="25" height="25" />
		<rect x="275" y="875" width="25" height="25" />
		<rect x="300" y="875" width="25" height="25" />
		<rect x="325" y="875" width="25" height="25" />
		<rect x="375" y="875" width="25" height="25" />
		<rect x="500" y="875" width="25" height="25" />
		<rect x="525" y="875" width="25" height="25" />
		<rect x="550" y="875" width="25" height="25" />
		<rect x="575" y="875" width="25" height="25" />
		<rect x="600" y="875" width="25" height="25" />
		<rect x="650" y="875" width="25" height="25" />
		<rect x="775" y="875" width="25" height="25" />
		<rect x="800" y="875" width="25" height="25" />
		<rect x="900" y="875" width="25" height="25" />
		<rect x="975" y="875" width="25" height="25" />
		<rect x="200" y="900" width="25" height="25" />
		<rect x="225" y="900" width="25" height="25" />
		<rect x="250" y="900" width="25" height="25" />
		<rect x="275" y="900" width="25" height="25" />
		<rect x="300" y="900" width="25" height="25" />
		<rect x="325" y="900" width="25" height="25" />
		<rect x="350" y="900" width="25" height="25" />
		<rect x="375" y="900" width="25" height="25" />
		<rect x="450" y="900" width="25" height="25" />
		<rect x="475" y="900" width="25" height="25" />
		<rect x="500" y="900" width="25" height="25" />
		<rect x="525" y="900" width="25" height="25" />
		<rect x="550" y="900" width="25" height="25" />
		<rect x="650" y="900" width="25" height="25" />
		<rect x="675" y="900" width="25" height="25" />
		<rect x="700" y="900" width="25" height="25" />
		<rect x="750" y="900" width="25" height="25" />
		<rect x="800" y="900" width="25" height="25" />
		<rect x="825" y="900" width="25" height="25" />
		<rect x="850" y="900" width="25" height="25" />
		<rect x="875" y="900" width="25" height="25" />
		<rect x="900" y="900" width="25" height="25" />
		<rect x="925" y="900" width="25" height="25" />
		<rect x="950" y="900" width="25" height="25" />
		<rect x="200" y="925" width="25" height="25" />
		<rect x="250" y="925" width="25" height="25" />
		<rect x="300" y="925" width="25" height="25" />
		<rect x="325" y="925" width="25" height="25" />
		<rect x="350" y="925" width="25" height="25" />
		<rect x="375" y="925" width="25" height="25" />
		<rect x="425" y="925" width="25" height="25" />
		<rect x="500" y="925" width="25" height="25" />
		<rect x="525" y="925" width="25" height="25" />
		<rect x="625" y="925" width="25" height="25" />
		<rect x="725" y="925" width="25" height="25" />
		<rect x="1000" y="925" width="25" height="25" />
		<rect x="200" y="950" width="25" height="25" />
		<rect x="225" y="950" width="25" height="25" />
		<rect x="250" y="950" width="25" height="25" />
		<rect x="275" y="950" width="25" height="25" />
		<rect x="300" y="950" width="25" height="25" />
		<rect x="325" y="950" width="25" height="25" />
		<rect x="350" y="950" width="25" height="25" />
		<rect x="375" y="950" width="25" height="25" />
		<rect x="450" y="950" width="25" height="25" />
		<rect x="550" y="950" width="25" height="25" />
		<rect x="675" y="950" width="25" height="25" />
		<rect x="700" y="950" width="25" height="25" />
		<rect x="750" y="950" width="25" height="25" />
		<rect x="775" y="950" width="25" height="25" />
		<rect x="850" y="950" width="25" height="25" />
		<rect x="875" y="950" width="25" height="25" />
		<rect x="900" y="950" width="25" height="25" />
		<rect x="950" y="950" width="25" height="25" />
		<rect x="975" y="950" width="25" height="25" />
		<rect x="225" y="975" width="25" height="25" />
		<rect x="300" y="975" width="25" height="25" />
		<rect x="325" y="975" width="25" height="25" />
		<rect x="375" y="975" width="25" height="25" />
		<rect x="400" y="975" width="25" height="25" />
		<rect x="500" y="975" width="25" height="25" />
		<rect x="600" y="975" width="25" height="25" />
		<rect x="675" y="975" width="25" height="25" />
		<rect x="750" y="975" width="25" height="25" />
		<rect x="900" y="975" width="25" height="25" />
		<rect x="925" y="975" width="25" height="25" />
		<rect x="975" y="975" width="25" height="25" />
		<rect x="225" y="1000" width="25" height="25" />
		<rect x="275" y="1000" width="25" height="25" />
		<rect x="325" y="1000" width="25" height="25" />
		<rect x="375" y="1000" width="25" height="25" />
		<rect x="400" y="1000" width="25" height="25" />
		<rect x="450" y="1000" width="25" height="25" />
		<rect x="475" y="1000" width="25" height="25" />
		<rect x="500" y="1000" width="25" height="25" />
		<rect x="525" y="1000" width="25" height="25" />
		<rect x="575" y="1000" width="25" height="25" />
		<rect x="625" y="1000" width="25" height="25" />
		<rect x="700" y="1000" width="25" height="25" />
		<rect x="725" y="1000" width="25" height="25" />
		<rect x="750" y="1000" width="25" height="25" />
		<rect x="775" y="1000" width="25" height="25" />
		<rect x="950" y="1000" width="25" height="25" />

		<use href="#eth-qr-marker" x="0" y="0" />
		<use href="#eth-qr-marker" x="850" y="0" />
		<use href="#eth-qr-marker" x="0" y="850" />

		<rect x="50" y="50" width="75" height="75" />
		<rect x="900" y="50" width="75" height="75" />
		<rect x="50" y="900" width="75" height="75" />

		<svg x="350" y="350" width="325" height="325" viewBox="0 0 512 512">
		  <circle fill="#8100f0" cx="50%" cy="50%" r="256" stroke-width="22" stroke="#fff" />
			<svg x="13%" y="13%" width="74%" height="74%" viewBox="0 0 24 24">
				<path fill="#ffffff" d="M11.944 17.97L4.58 13.62 11.943 24l7.37-10.38-7.372 4.35h.003zM12.056 0L4.69 12.223l7.365 4.354 7.365-4.35L12.056 0z" />
			</svg>
		</svg>
  </g>
</svg>
