<svg alt="Ko-fi Donation" viewBox="0 0 1147 1147" fill="#000000" xml:space="preserve" xmlns="http://www.w3.org/2000/svg">
	<defs>
		<rect id="ko-fi-qr-marker" x="16.275" y="16.275" width="184.45" height="184.45" fill="none" stroke="#000" stroke-width="32.55" />
	</defs>
  <rect x="0" y="0" width="1147" height="1147" fill="rgb(255,255,255)" />
  <g transform="translate(62,62)">
		<rect x="279" y="0" width="31" height="31" />
		<rect x="310" y="0" width="31" height="31" />
		<rect x="403" y="0" width="31" height="31" />
		<rect x="465" y="0" width="31" height="31" />
		<rect x="496" y="0" width="31" height="31" />
		<rect x="651" y="0" width="31" height="31" />
		<rect x="713" y="0" width="31" height="31" />
		<rect x="744" y="0" width="31" height="31" />
		<rect x="248" y="31" width="31" height="31" />
		<rect x="279" y="31" width="31" height="31" />
		<rect x="310" y="31" width="31" height="31" />
		<rect x="372" y="31" width="31" height="31" />
		<rect x="434" y="31" width="31" height="31" />
		<rect x="496" y="31" width="31" height="31" />
		<rect x="744" y="31" width="31" height="31" />
		<rect x="248" y="62" width="31" height="31" />
		<rect x="279" y="62" width="31" height="31" />
		<rect x="310" y="62" width="31" height="31" />
		<rect x="372" y="62" width="31" height="31" />
		<rect x="403" y="62" width="31" height="31" />
		<rect x="465" y="62" width="31" height="31" />
		<rect x="496" y="62" width="31" height="31" />
		<rect x="651" y="62" width="31" height="31" />
		<rect x="682" y="62" width="31" height="31" />
		<rect x="713" y="62" width="31" height="31" />
		<rect x="744" y="62" width="31" height="31" />
		<rect x="372" y="93" width="31" height="31" />
		<rect x="465" y="93" width="31" height="31" />
		<rect x="589" y="93" width="31" height="31" />
		<rect x="682" y="93" width="31" height="31" />
		<rect x="713" y="93" width="31" height="31" />
		<rect x="744" y="93" width="31" height="31" />
		<rect x="279" y="124" width="31" height="31" />
		<rect x="403" y="124" width="31" height="31" />
		<rect x="496" y="124" width="31" height="31" />
		<rect x="558" y="124" width="31" height="31" />
		<rect x="651" y="124" width="31" height="31" />
		<rect x="248" y="155" width="31" height="31" />
		<rect x="310" y="155" width="31" height="31" />
		<rect x="341" y="155" width="31" height="31" />
		<rect x="465" y="155" width="31" height="31" />
		<rect x="713" y="155" width="31" height="31" />
		<rect x="744" y="155" width="31" height="31" />
		<rect x="248" y="186" width="31" height="31" />
		<rect x="310" y="186" width="31" height="31" />
		<rect x="372" y="186" width="31" height="31" />
		<rect x="434" y="186" width="31" height="31" />
		<rect x="496" y="186" width="31" height="31" />
		<rect x="558" y="186" width="31" height="31" />
		<rect x="620" y="186" width="31" height="31" />
		<rect x="682" y="186" width="31" height="31" />
		<rect x="744" y="186" width="31" height="31" />
		<rect x="248" y="217" width="31" height="31" />
		<rect x="465" y="217" width="31" height="31" />
		<rect x="589" y="217" width="31" height="31" />
		<rect x="620" y="217" width="31" height="31" />
		<rect x="651" y="217" width="31" height="31" />
		<rect x="713" y="217" width="31" height="31" />
		<rect x="62" y="248" width="31" height="31" />
		<rect x="93" y="248" width="31" height="31" />
		<rect x="124" y="248" width="31" height="31" />
		<rect x="186" y="248" width="31" height="31" />
		<rect x="248" y="248" width="31" height="31" />
		<rect x="310" y="248" width="31" height="31" />
		<rect x="341" y="248" width="31" height="31" />
		<rect x="496" y="248" width="31" height="31" />
		<rect x="527" y="248" width="31" height="31" />
		<rect x="682" y="248" width="31" height="31" />
		<rect x="713" y="248" width="31" height="31" />
		<rect x="775" y="248" width="31" height="31" />
		<rect x="806" y="248" width="31" height="31" />
		<rect x="837" y="248" width="31" height="31" />
		<rect x="930" y="248" width="31" height="31" />
		<rect x="961" y="248" width="31" height="31" />
		<rect x="992" y="248" width="31" height="31" />
		<rect x="0" y="279" width="31" height="31" />
		<rect x="93" y="279" width="31" height="31" />
		<rect x="124" y="279" width="31" height="31" />
		<rect x="155" y="279" width="31" height="31" />
		<rect x="341" y="279" width="31" height="31" />
		<rect x="372" y="279" width="31" height="31" />
		<rect x="496" y="279" width="31" height="31" />
		<rect x="527" y="279" width="31" height="31" />
		<rect x="620" y="279" width="31" height="31" />
		<rect x="651" y="279" width="31" height="31" />
		<rect x="713" y="279" width="31" height="31" />
		<rect x="775" y="279" width="31" height="31" />
		<rect x="806" y="279" width="31" height="31" />
		<rect x="899" y="279" width="31" height="31" />
		<rect x="992" y="279" width="31" height="31" />
		<rect x="31" y="310" width="31" height="31" />
		<rect x="62" y="310" width="31" height="31" />
		<rect x="93" y="310" width="31" height="31" />
		<rect x="186" y="310" width="31" height="31" />
		<rect x="248" y="310" width="31" height="31" />
		<rect x="310" y="310" width="31" height="31" />
		<rect x="341" y="310" width="31" height="31" />
		<rect x="372" y="310" width="31" height="31" />
		<rect x="434" y="310" width="31" height="31" />
		<rect x="465" y="310" width="31" height="31" />
		<rect x="496" y="310" width="31" height="31" />
		<rect x="558" y="310" width="31" height="31" />
		<rect x="589" y="310" width="31" height="31" />
		<rect x="651" y="310" width="31" height="31" />
		<rect x="775" y="310" width="31" height="31" />
		<rect x="837" y="310" width="31" height="31" />
		<rect x="899" y="310" width="31" height="31" />
		<rect x="961" y="310" width="31" height="31" />
		<rect x="0" y="341" width="31" height="31" />
		<rect x="62" y="341" width="31" height="31" />
		<rect x="93" y="341" width="31" height="31" />
		<rect x="124" y="341" width="31" height="31" />
		<rect x="217" y="341" width="31" height="31" />
		<rect x="248" y="341" width="31" height="31" />
		<rect x="341" y="341" width="31" height="31" />
		<rect x="465" y="341" width="31" height="31" />
		<rect x="558" y="341" width="31" height="31" />
		<rect x="620" y="341" width="31" height="31" />
		<rect x="651" y="341" width="31" height="31" />
		<rect x="682" y="341" width="31" height="31" />
		<rect x="713" y="341" width="31" height="31" />
		<rect x="806" y="341" width="31" height="31" />
		<rect x="899" y="341" width="31" height="31" />
		<rect x="930" y="341" width="31" height="31" />
		<rect x="961" y="341" width="31" height="31" />
		<rect x="992" y="341" width="31" height="31" />
		<rect x="31" y="372" width="31" height="31" />
		<rect x="155" y="372" width="31" height="31" />
		<rect x="186" y="372" width="31" height="31" />
		<rect x="217" y="372" width="31" height="31" />
		<rect x="279" y="372" width="31" height="31" />
		<rect x="310" y="372" width="31" height="31" />
		<rect x="341" y="372" width="31" height="31" />
		<rect x="496" y="372" width="31" height="31" />
		<rect x="527" y="372" width="31" height="31" />
		<rect x="558" y="372" width="31" height="31" />
		<rect x="589" y="372" width="31" height="31" />
		<rect x="651" y="372" width="31" height="31" />
		<rect x="713" y="372" width="31" height="31" />
		<rect x="744" y="372" width="31" height="31" />
		<rect x="775" y="372" width="31" height="31" />
		<rect x="992" y="372" width="31" height="31" />
		<rect x="0" y="403" width="31" height="31" />
		<rect x="62" y="403" width="31" height="31" />
		<rect x="155" y="403" width="31" height="31" />
		<rect x="217" y="403" width="31" height="31" />
		<rect x="310" y="403" width="31" height="31" />
		<rect x="527" y="403" width="31" height="31" />
		<rect x="620" y="403" width="31" height="31" />
		<rect x="682" y="403" width="31" height="31" />
		<rect x="713" y="403" width="31" height="31" />
		<rect x="806" y="403" width="31" height="31" />
		<rect x="837" y="403" width="31" height="31" />
		<rect x="930" y="403" width="31" height="31" />
		<rect x="992" y="403" width="31" height="31" />
		<rect x="0" y="434" width="31" height="31" />
		<rect x="62" y="434" width="31" height="31" />
		<rect x="124" y="434" width="31" height="31" />
		<rect x="155" y="434" width="31" height="31" />
		<rect x="186" y="434" width="31" height="31" />
		<rect x="248" y="434" width="31" height="31" />
		<rect x="310" y="434" width="31" height="31" />
		<rect x="341" y="434" width="31" height="31" />
		<rect x="372" y="434" width="31" height="31" />
		<rect x="496" y="434" width="31" height="31" />
		<rect x="558" y="434" width="31" height="31" />
		<rect x="589" y="434" width="31" height="31" />
		<rect x="682" y="434" width="31" height="31" />
		<rect x="744" y="434" width="31" height="31" />
		<rect x="775" y="434" width="31" height="31" />
		<rect x="806" y="434" width="31" height="31" />
		<rect x="899" y="434" width="31" height="31" />
		<rect x="930" y="434" width="31" height="31" />
		<rect x="961" y="434" width="31" height="31" />
		<rect x="31" y="465" width="31" height="31" />
		<rect x="124" y="465" width="31" height="31" />
		<rect x="155" y="465" width="31" height="31" />
		<rect x="217" y="465" width="31" height="31" />
		<rect x="310" y="465" width="31" height="31" />
		<rect x="527" y="465" width="31" height="31" />
		<rect x="558" y="465" width="31" height="31" />
		<rect x="589" y="465" width="31" height="31" />
		<rect x="620" y="465" width="31" height="31" />
		<rect x="651" y="465" width="31" height="31" />
		<rect x="682" y="465" width="31" height="31" />
		<rect x="713" y="465" width="31" height="31" />
		<rect x="806" y="465" width="31" height="31" />
		<rect x="837" y="465" width="31" height="31" />
		<rect x="930" y="465" width="31" height="31" />
		<rect x="961" y="465" width="31" height="31" />
		<rect x="31" y="496" width="31" height="31" />
		<rect x="62" y="496" width="31" height="31" />
		<rect x="93" y="496" width="31" height="31" />
		<rect x="124" y="496" width="31" height="31" />
		<rect x="155" y="496" width="31" height="31" />
		<rect x="186" y="496" width="31" height="31" />
		<rect x="217" y="496" width="31" height="31" />
		<rect x="341" y="496" width="31" height="31" />
		<rect x="403" y="496" width="31" height="31" />
		<rect x="465" y="496" width="31" height="31" />
		<rect x="496" y="496" width="31" height="31" />
		<rect x="558" y="496" width="31" height="31" />
		<rect x="589" y="496" width="31" height="31" />
		<rect x="713" y="496" width="31" height="31" />
		<rect x="775" y="496" width="31" height="31" />
		<rect x="837" y="496" width="31" height="31" />
		<rect x="868" y="496" width="31" height="31" />
		<rect x="899" y="496" width="31" height="31" />
		<rect x="930" y="496" width="31" height="31" />
		<rect x="992" y="496" width="31" height="31" />
		<rect x="0" y="527" width="31" height="31" />
		<rect x="31" y="527" width="31" height="31" />
		<rect x="93" y="527" width="31" height="31" />
		<rect x="124" y="527" width="31" height="31" />
		<rect x="155" y="527" width="31" height="31" />
		<rect x="217" y="527" width="31" height="31" />
		<rect x="248" y="527" width="31" height="31" />
		<rect x="279" y="527" width="31" height="31" />
		<rect x="310" y="527" width="31" height="31" />
		<rect x="341" y="527" width="31" height="31" />
		<rect x="372" y="527" width="31" height="31" />
		<rect x="403" y="527" width="31" height="31" />
		<rect x="434" y="527" width="31" height="31" />
		<rect x="589" y="527" width="31" height="31" />
		<rect x="620" y="527" width="31" height="31" />
		<rect x="713" y="527" width="31" height="31" />
		<rect x="744" y="527" width="31" height="31" />
		<rect x="806" y="527" width="31" height="31" />
		<rect x="31" y="558" width="31" height="31" />
		<rect x="93" y="558" width="31" height="31" />
		<rect x="124" y="558" width="31" height="31" />
		<rect x="186" y="558" width="31" height="31" />
		<rect x="217" y="558" width="31" height="31" />
		<rect x="372" y="558" width="31" height="31" />
		<rect x="465" y="558" width="31" height="31" />
		<rect x="496" y="558" width="31" height="31" />
		<rect x="682" y="558" width="31" height="31" />
		<rect x="775" y="558" width="31" height="31" />
		<rect x="806" y="558" width="31" height="31" />
		<rect x="930" y="558" width="31" height="31" />
		<rect x="961" y="558" width="31" height="31" />
		<rect x="992" y="558" width="31" height="31" />
		<rect x="31" y="589" width="31" height="31" />
		<rect x="93" y="589" width="31" height="31" />
		<rect x="124" y="589" width="31" height="31" />
		<rect x="248" y="589" width="31" height="31" />
		<rect x="279" y="589" width="31" height="31" />
		<rect x="310" y="589" width="31" height="31" />
		<rect x="372" y="589" width="31" height="31" />
		<rect x="434" y="589" width="31" height="31" />
		<rect x="496" y="589" width="31" height="31" />
		<rect x="589" y="589" width="31" height="31" />
		<rect x="651" y="589" width="31" height="31" />
		<rect x="682" y="589" width="31" height="31" />
		<rect x="713" y="589" width="31" height="31" />
		<rect x="744" y="589" width="31" height="31" />
		<rect x="806" y="589" width="31" height="31" />
		<rect x="837" y="589" width="31" height="31" />
		<rect x="899" y="589" width="31" height="31" />
		<rect x="930" y="589" width="31" height="31" />
		<rect x="992" y="589" width="31" height="31" />
		<rect x="31" y="620" width="31" height="31" />
		<rect x="186" y="620" width="31" height="31" />
		<rect x="310" y="620" width="31" height="31" />
		<rect x="434" y="620" width="31" height="31" />
		<rect x="465" y="620" width="31" height="31" />
		<rect x="527" y="620" width="31" height="31" />
		<rect x="682" y="620" width="31" height="31" />
		<rect x="775" y="620" width="31" height="31" />
		<rect x="806" y="620" width="31" height="31" />
		<rect x="837" y="620" width="31" height="31" />
		<rect x="868" y="620" width="31" height="31" />
		<rect x="899" y="620" width="31" height="31" />
		<rect x="961" y="620" width="31" height="31" />
		<rect x="992" y="620" width="31" height="31" />
		<rect x="0" y="651" width="31" height="31" />
		<rect x="62" y="651" width="31" height="31" />
		<rect x="93" y="651" width="31" height="31" />
		<rect x="124" y="651" width="31" height="31" />
		<rect x="155" y="651" width="31" height="31" />
		<rect x="341" y="651" width="31" height="31" />
		<rect x="372" y="651" width="31" height="31" />
		<rect x="434" y="651" width="31" height="31" />
		<rect x="527" y="651" width="31" height="31" />
		<rect x="558" y="651" width="31" height="31" />
		<rect x="620" y="651" width="31" height="31" />
		<rect x="744" y="651" width="31" height="31" />
		<rect x="899" y="651" width="31" height="31" />
		<rect x="992" y="651" width="31" height="31" />
		<rect x="0" y="682" width="31" height="31" />
		<rect x="62" y="682" width="31" height="31" />
		<rect x="124" y="682" width="31" height="31" />
		<rect x="155" y="682" width="31" height="31" />
		<rect x="186" y="682" width="31" height="31" />
		<rect x="279" y="682" width="31" height="31" />
		<rect x="310" y="682" width="31" height="31" />
		<rect x="372" y="682" width="31" height="31" />
		<rect x="403" y="682" width="31" height="31" />
		<rect x="496" y="682" width="31" height="31" />
		<rect x="558" y="682" width="31" height="31" />
		<rect x="620" y="682" width="31" height="31" />
		<rect x="651" y="682" width="31" height="31" />
		<rect x="899" y="682" width="31" height="31" />
		<rect x="0" y="713" width="31" height="31" />
		<rect x="62" y="713" width="31" height="31" />
		<rect x="93" y="713" width="31" height="31" />
		<rect x="155" y="713" width="31" height="31" />
		<rect x="248" y="713" width="31" height="31" />
		<rect x="279" y="713" width="31" height="31" />
		<rect x="310" y="713" width="31" height="31" />
		<rect x="403" y="713" width="31" height="31" />
		<rect x="589" y="713" width="31" height="31" />
		<rect x="620" y="713" width="31" height="31" />
		<rect x="651" y="713" width="31" height="31" />
		<rect x="682" y="713" width="31" height="31" />
		<rect x="744" y="713" width="31" height="31" />
		<rect x="868" y="713" width="31" height="31" />
		<rect x="930" y="713" width="31" height="31" />
		<rect x="961" y="713" width="31" height="31" />
		<rect x="0" y="744" width="31" height="31" />
		<rect x="93" y="744" width="31" height="31" />
		<rect x="124" y="744" width="31" height="31" />
		<rect x="155" y="744" width="31" height="31" />
		<rect x="186" y="744" width="31" height="31" />
		<rect x="217" y="744" width="31" height="31" />
		<rect x="248" y="744" width="31" height="31" />
		<rect x="310" y="744" width="31" height="31" />
		<rect x="403" y="744" width="31" height="31" />
		<rect x="434" y="744" width="31" height="31" />
		<rect x="465" y="744" width="31" height="31" />
		<rect x="496" y="744" width="31" height="31" />
		<rect x="558" y="744" width="31" height="31" />
		<rect x="620" y="744" width="31" height="31" />
		<rect x="651" y="744" width="31" height="31" />
		<rect x="744" y="744" width="31" height="31" />
		<rect x="775" y="744" width="31" height="31" />
		<rect x="806" y="744" width="31" height="31" />
		<rect x="837" y="744" width="31" height="31" />
		<rect x="868" y="744" width="31" height="31" />
		<rect x="961" y="744" width="31" height="31" />
		<rect x="992" y="744" width="31" height="31" />
		<rect x="248" y="775" width="31" height="31" />
		<rect x="279" y="775" width="31" height="31" />
		<rect x="310" y="775" width="31" height="31" />
		<rect x="341" y="775" width="31" height="31" />
		<rect x="465" y="775" width="31" height="31" />
		<rect x="496" y="775" width="31" height="31" />
		<rect x="558" y="775" width="31" height="31" />
		<rect x="744" y="775" width="31" height="31" />
		<rect x="868" y="775" width="31" height="31" />
		<rect x="992" y="775" width="31" height="31" />
		<rect x="341" y="806" width="31" height="31" />
		<rect x="372" y="806" width="31" height="31" />
		<rect x="403" y="806" width="31" height="31" />
		<rect x="434" y="806" width="31" height="31" />
		<rect x="465" y="806" width="31" height="31" />
		<rect x="496" y="806" width="31" height="31" />
		<rect x="558" y="806" width="31" height="31" />
		<rect x="620" y="806" width="31" height="31" />
		<rect x="682" y="806" width="31" height="31" />
		<rect x="713" y="806" width="31" height="31" />
		<rect x="744" y="806" width="31" height="31" />
		<rect x="806" y="806" width="31" height="31" />
		<rect x="868" y="806" width="31" height="31" />
		<rect x="961" y="806" width="31" height="31" />
		<rect x="279" y="837" width="31" height="31" />
		<rect x="310" y="837" width="31" height="31" />
		<rect x="403" y="837" width="31" height="31" />
		<rect x="465" y="837" width="31" height="31" />
		<rect x="589" y="837" width="31" height="31" />
		<rect x="620" y="837" width="31" height="31" />
		<rect x="713" y="837" width="31" height="31" />
		<rect x="744" y="837" width="31" height="31" />
		<rect x="868" y="837" width="31" height="31" />
		<rect x="899" y="837" width="31" height="31" />
		<rect x="930" y="837" width="31" height="31" />
		<rect x="961" y="837" width="31" height="31" />
		<rect x="992" y="837" width="31" height="31" />
		<rect x="248" y="868" width="31" height="31" />
		<rect x="279" y="868" width="31" height="31" />
		<rect x="310" y="868" width="31" height="31" />
		<rect x="403" y="868" width="31" height="31" />
		<rect x="434" y="868" width="31" height="31" />
		<rect x="465" y="868" width="31" height="31" />
		<rect x="651" y="868" width="31" height="31" />
		<rect x="682" y="868" width="31" height="31" />
		<rect x="744" y="868" width="31" height="31" />
		<rect x="775" y="868" width="31" height="31" />
		<rect x="806" y="868" width="31" height="31" />
		<rect x="837" y="868" width="31" height="31" />
		<rect x="868" y="868" width="31" height="31" />
		<rect x="961" y="868" width="31" height="31" />
		<rect x="992" y="868" width="31" height="31" />
		<rect x="248" y="899" width="31" height="31" />
		<rect x="341" y="899" width="31" height="31" />
		<rect x="527" y="899" width="31" height="31" />
		<rect x="589" y="899" width="31" height="31" />
		<rect x="713" y="899" width="31" height="31" />
		<rect x="744" y="899" width="31" height="31" />
		<rect x="775" y="899" width="31" height="31" />
		<rect x="868" y="899" width="31" height="31" />
		<rect x="899" y="899" width="31" height="31" />
		<rect x="961" y="899" width="31" height="31" />
		<rect x="248" y="930" width="31" height="31" />
		<rect x="279" y="930" width="31" height="31" />
		<rect x="434" y="930" width="31" height="31" />
		<rect x="465" y="930" width="31" height="31" />
		<rect x="496" y="930" width="31" height="31" />
		<rect x="527" y="930" width="31" height="31" />
		<rect x="651" y="930" width="31" height="31" />
		<rect x="682" y="930" width="31" height="31" />
		<rect x="713" y="930" width="31" height="31" />
		<rect x="744" y="930" width="31" height="31" />
		<rect x="775" y="930" width="31" height="31" />
		<rect x="806" y="930" width="31" height="31" />
		<rect x="341" y="961" width="31" height="31" />
		<rect x="403" y="961" width="31" height="31" />
		<rect x="434" y="961" width="31" height="31" />
		<rect x="496" y="961" width="31" height="31" />
		<rect x="651" y="961" width="31" height="31" />
		<rect x="806" y="961" width="31" height="31" />
		<rect x="837" y="961" width="31" height="31" />
		<rect x="899" y="961" width="31" height="31" />
		<rect x="310" y="992" width="31" height="31" />
		<rect x="341" y="992" width="31" height="31" />
		<rect x="372" y="992" width="31" height="31" />
		<rect x="527" y="992" width="31" height="31" />
		<rect x="558" y="992" width="31" height="31" />
		<rect x="589" y="992" width="31" height="31" />
		<rect x="620" y="992" width="31" height="31" />
		<rect x="651" y="992" width="31" height="31" />
		<rect x="744" y="992" width="31" height="31" />
		<rect x="775" y="992" width="31" height="31" />
		<rect x="930" y="992" width="31" height="31" />
		<rect x="961" y="992" width="31" height="31" />

		<use href="#ko-fi-qr-marker" x="0" y="0" />
		<use href="#ko-fi-qr-marker" x="806" y="0" />
		<use href="#ko-fi-qr-marker" x="0" y="806" />

		<rect x="62" y="62" width="93" height="93" />
		<rect x="868" y="62" width="93" height="93" />
		<rect x="62" y="868" width="93" height="93" />

		<svg x="350" y="350" width="325" height="325" viewBox="0 0 512 512">
		  <circle fill="#8100f0" cx="50%" cy="50%" r="256" />
			<svg x="13%" y="13%" width="74%" height="74%" viewBox="0 0 24 24">
				<path fill="#ffffff" d="M11.351 2.715c-2.7 0-4.986.025-6.83.26C2.078 3.285 0 5.154 0 8.61c0 3.506.182 6.13 1.585 8.493 1.584 2.701 4.233 4.182 7.662 4.182h.83c4.209 0 6.494-2.234 7.637-4a9.5 9.5 0 0 0 1.091-2.338C21.792 14.688 24 12.22 24 9.208v-.415c0-3.247-2.13-5.507-5.792-5.87-1.558-.156-2.65-.208-6.857-.208m0 1.947c4.208 0 5.09.052 6.571.182 2.624.311 4.13 1.584 4.13 4v.39c0 2.156-1.792 3.844-3.87 3.844h-.935l-.156.649c-.208 1.013-.597 1.818-1.039 2.546-.909 1.428-2.545 3.064-5.922 3.064h-.805c-2.571 0-4.831-.883-6.078-3.195-1.09-2-1.298-4.155-1.298-7.506 0-2.181.857-3.402 3.012-3.714 1.533-.233 3.559-.26 6.39-.26m6.547 2.287c-.416 0-.65.234-.65.546v2.935c0 .311.234.545.65.545 1.324 0 2.051-.754 2.051-2s-.727-2.026-2.052-2.026m-10.39.182c-1.818 0-3.013 1.48-3.013 3.142 0 1.533.858 2.857 1.949 3.897.727.701 1.87 1.429 2.649 1.896a1.47 1.47 0 0 0 1.507 0c.78-.467 1.922-1.195 2.623-1.896 1.117-1.039 1.974-2.364 1.974-3.897 0-1.662-1.247-3.142-3.039-3.142-1.065 0-1.792.545-2.338 1.298-.493-.753-1.246-1.298-2.312-1.298" />
			</svg>
		</svg>
  </g>
</svg>
