<svg alt="Venmo Donation" viewBox="0 0 1147 1147" fill="#000000" xml:space="preserve" xmlns="http://www.w3.org/2000/svg">
	<defs>
		<rect id="venmo-qr-marker" x="16.275" y="16.275" width="184.45" height="184.45" fill="none" stroke="#000" stroke-width="32.55" />
	</defs>
  <rect x="0" y="0" width="1147" height="1147" fill="rgb(255,255,255)" />
  <g transform="translate(62,62)">
		<rect x="403" y="0" width="31" height="31" />
		<rect x="434" y="0" width="31" height="31" />
		<rect x="527" y="0" width="31" height="31" />
		<rect x="651" y="0" width="31" height="31" />
		<rect x="713" y="0" width="31" height="31" />
		<rect x="744" y="0" width="31" height="31" />
		<rect x="310" y="31" width="31" height="31" />
		<rect x="372" y="31" width="31" height="31" />
		<rect x="403" y="31" width="31" height="31" />
		<rect x="434" y="31" width="31" height="31" />
		<rect x="465" y="31" width="31" height="31" />
		<rect x="496" y="31" width="31" height="31" />
		<rect x="558" y="31" width="31" height="31" />
		<rect x="589" y="31" width="31" height="31" />
		<rect x="620" y="31" width="31" height="31" />
		<rect x="651" y="31" width="31" height="31" />
		<rect x="713" y="31" width="31" height="31" />
		<rect x="279" y="62" width="31" height="31" />
		<rect x="310" y="62" width="31" height="31" />
		<rect x="341" y="62" width="31" height="31" />
		<rect x="403" y="62" width="31" height="31" />
		<rect x="527" y="62" width="31" height="31" />
		<rect x="589" y="62" width="31" height="31" />
		<rect x="713" y="62" width="31" height="31" />
		<rect x="434" y="93" width="31" height="31" />
		<rect x="496" y="93" width="31" height="31" />
		<rect x="558" y="93" width="31" height="31" />
		<rect x="682" y="93" width="31" height="31" />
		<rect x="713" y="93" width="31" height="31" />
		<rect x="744" y="93" width="31" height="31" />
		<rect x="248" y="124" width="31" height="31" />
		<rect x="310" y="124" width="31" height="31" />
		<rect x="341" y="124" width="31" height="31" />
		<rect x="434" y="124" width="31" height="31" />
		<rect x="527" y="124" width="31" height="31" />
		<rect x="558" y="124" width="31" height="31" />
		<rect x="589" y="124" width="31" height="31" />
		<rect x="620" y="124" width="31" height="31" />
		<rect x="713" y="124" width="31" height="31" />
		<rect x="744" y="124" width="31" height="31" />
		<rect x="341" y="155" width="31" height="31" />
		<rect x="403" y="155" width="31" height="31" />
		<rect x="434" y="155" width="31" height="31" />
		<rect x="589" y="155" width="31" height="31" />
		<rect x="713" y="155" width="31" height="31" />
		<rect x="248" y="186" width="31" height="31" />
		<rect x="310" y="186" width="31" height="31" />
		<rect x="372" y="186" width="31" height="31" />
		<rect x="434" y="186" width="31" height="31" />
		<rect x="496" y="186" width="31" height="31" />
		<rect x="558" y="186" width="31" height="31" />
		<rect x="620" y="186" width="31" height="31" />
		<rect x="682" y="186" width="31" height="31" />
		<rect x="744" y="186" width="31" height="31" />
		<rect x="248" y="217" width="31" height="31" />
		<rect x="279" y="217" width="31" height="31" />
		<rect x="310" y="217" width="31" height="31" />
		<rect x="341" y="217" width="31" height="31" />
		<rect x="372" y="217" width="31" height="31" />
		<rect x="434" y="217" width="31" height="31" />
		<rect x="496" y="217" width="31" height="31" />
		<rect x="527" y="217" width="31" height="31" />
		<rect x="682" y="217" width="31" height="31" />
		<rect x="744" y="217" width="31" height="31" />
		<rect x="62" y="248" width="31" height="31" />
		<rect x="93" y="248" width="31" height="31" />
		<rect x="186" y="248" width="31" height="31" />
		<rect x="217" y="248" width="31" height="31" />
		<rect x="248" y="248" width="31" height="31" />
		<rect x="279" y="248" width="31" height="31" />
		<rect x="527" y="248" width="31" height="31" />
		<rect x="589" y="248" width="31" height="31" />
		<rect x="713" y="248" width="31" height="31" />
		<rect x="775" y="248" width="31" height="31" />
		<rect x="806" y="248" width="31" height="31" />
		<rect x="868" y="248" width="31" height="31" />
		<rect x="0" y="279" width="31" height="31" />
		<rect x="31" y="279" width="31" height="31" />
		<rect x="62" y="279" width="31" height="31" />
		<rect x="155" y="279" width="31" height="31" />
		<rect x="279" y="279" width="31" height="31" />
		<rect x="310" y="279" width="31" height="31" />
		<rect x="372" y="279" width="31" height="31" />
		<rect x="403" y="279" width="31" height="31" />
		<rect x="496" y="279" width="31" height="31" />
		<rect x="527" y="279" width="31" height="31" />
		<rect x="589" y="279" width="31" height="31" />
		<rect x="651" y="279" width="31" height="31" />
		<rect x="713" y="279" width="31" height="31" />
		<rect x="775" y="279" width="31" height="31" />
		<rect x="806" y="279" width="31" height="31" />
		<rect x="899" y="279" width="31" height="31" />
		<rect x="992" y="279" width="31" height="31" />
		<rect x="31" y="310" width="31" height="31" />
		<rect x="155" y="310" width="31" height="31" />
		<rect x="186" y="310" width="31" height="31" />
		<rect x="248" y="310" width="31" height="31" />
		<rect x="372" y="310" width="31" height="31" />
		<rect x="465" y="310" width="31" height="31" />
		<rect x="527" y="310" width="31" height="31" />
		<rect x="558" y="310" width="31" height="31" />
		<rect x="713" y="310" width="31" height="31" />
		<rect x="775" y="310" width="31" height="31" />
		<rect x="930" y="310" width="31" height="31" />
		<rect x="961" y="310" width="31" height="31" />
		<rect x="992" y="310" width="31" height="31" />
		<rect x="0" y="341" width="31" height="31" />
		<rect x="31" y="341" width="31" height="31" />
		<rect x="62" y="341" width="31" height="31" />
		<rect x="93" y="341" width="31" height="31" />
		<rect x="124" y="341" width="31" height="31" />
		<rect x="217" y="341" width="31" height="31" />
		<rect x="310" y="341" width="31" height="31" />
		<rect x="372" y="341" width="31" height="31" />
		<rect x="403" y="341" width="31" height="31" />
		<rect x="527" y="341" width="31" height="31" />
		<rect x="558" y="341" width="31" height="31" />
		<rect x="620" y="341" width="31" height="31" />
		<rect x="713" y="341" width="31" height="31" />
		<rect x="744" y="341" width="31" height="31" />
		<rect x="837" y="341" width="31" height="31" />
		<rect x="868" y="341" width="31" height="31" />
		<rect x="899" y="341" width="31" height="31" />
		<rect x="961" y="341" width="31" height="31" />
		<rect x="992" y="341" width="31" height="31" />
		<rect x="62" y="372" width="31" height="31" />
		<rect x="155" y="372" width="31" height="31" />
		<rect x="186" y="372" width="31" height="31" />
		<rect x="217" y="372" width="31" height="31" />
		<rect x="310" y="372" width="31" height="31" />
		<rect x="372" y="372" width="31" height="31" />
		<rect x="403" y="372" width="31" height="31" />
		<rect x="434" y="372" width="31" height="31" />
		<rect x="496" y="372" width="31" height="31" />
		<rect x="558" y="372" width="31" height="31" />
		<rect x="651" y="372" width="31" height="31" />
		<rect x="713" y="372" width="31" height="31" />
		<rect x="744" y="372" width="31" height="31" />
		<rect x="775" y="372" width="31" height="31" />
		<rect x="899" y="372" width="31" height="31" />
		<rect x="961" y="372" width="31" height="31" />
		<rect x="0" y="403" width="31" height="31" />
		<rect x="31" y="403" width="31" height="31" />
		<rect x="93" y="403" width="31" height="31" />
		<rect x="155" y="403" width="31" height="31" />
		<rect x="217" y="403" width="31" height="31" />
		<rect x="248" y="403" width="31" height="31" />
		<rect x="279" y="403" width="31" height="31" />
		<rect x="341" y="403" width="31" height="31" />
		<rect x="465" y="403" width="31" height="31" />
		<rect x="496" y="403" width="31" height="31" />
		<rect x="527" y="403" width="31" height="31" />
		<rect x="589" y="403" width="31" height="31" />
		<rect x="620" y="403" width="31" height="31" />
		<rect x="651" y="403" width="31" height="31" />
		<rect x="682" y="403" width="31" height="31" />
		<rect x="744" y="403" width="31" height="31" />
		<rect x="899" y="403" width="31" height="31" />
		<rect x="930" y="403" width="31" height="31" />
		<rect x="31" y="434" width="31" height="31" />
		<rect x="186" y="434" width="31" height="31" />
		<rect x="279" y="434" width="31" height="31" />
		<rect x="310" y="434" width="31" height="31" />
		<rect x="403" y="434" width="31" height="31" />
		<rect x="434" y="434" width="31" height="31" />
		<rect x="589" y="434" width="31" height="31" />
		<rect x="651" y="434" width="31" height="31" />
		<rect x="775" y="434" width="31" height="31" />
		<rect x="806" y="434" width="31" height="31" />
		<rect x="837" y="434" width="31" height="31" />
		<rect x="868" y="434" width="31" height="31" />
		<rect x="899" y="434" width="31" height="31" />
		<rect x="0" y="465" width="31" height="31" />
		<rect x="31" y="465" width="31" height="31" />
		<rect x="62" y="465" width="31" height="31" />
		<rect x="124" y="465" width="31" height="31" />
		<rect x="155" y="465" width="31" height="31" />
		<rect x="217" y="465" width="31" height="31" />
		<rect x="248" y="465" width="31" height="31" />
		<rect x="310" y="465" width="31" height="31" />
		<rect x="372" y="465" width="31" height="31" />
		<rect x="434" y="465" width="31" height="31" />
		<rect x="465" y="465" width="31" height="31" />
		<rect x="527" y="465" width="31" height="31" />
		<rect x="558" y="465" width="31" height="31" />
		<rect x="651" y="465" width="31" height="31" />
		<rect x="682" y="465" width="31" height="31" />
		<rect x="713" y="465" width="31" height="31" />
		<rect x="806" y="465" width="31" height="31" />
		<rect x="837" y="465" width="31" height="31" />
		<rect x="930" y="465" width="31" height="31" />
		<rect x="961" y="465" width="31" height="31" />
		<rect x="992" y="465" width="31" height="31" />
		<rect x="0" y="496" width="31" height="31" />
		<rect x="31" y="496" width="31" height="31" />
		<rect x="62" y="496" width="31" height="31" />
		<rect x="124" y="496" width="31" height="31" />
		<rect x="186" y="496" width="31" height="31" />
		<rect x="217" y="496" width="31" height="31" />
		<rect x="310" y="496" width="31" height="31" />
		<rect x="558" y="496" width="31" height="31" />
		<rect x="651" y="496" width="31" height="31" />
		<rect x="744" y="496" width="31" height="31" />
		<rect x="775" y="496" width="31" height="31" />
		<rect x="806" y="496" width="31" height="31" />
		<rect x="899" y="496" width="31" height="31" />
		<rect x="93" y="527" width="31" height="31" />
		<rect x="124" y="527" width="31" height="31" />
		<rect x="217" y="527" width="31" height="31" />
		<rect x="248" y="527" width="31" height="31" />
		<rect x="310" y="527" width="31" height="31" />
		<rect x="341" y="527" width="31" height="31" />
		<rect x="403" y="527" width="31" height="31" />
		<rect x="434" y="527" width="31" height="31" />
		<rect x="496" y="527" width="31" height="31" />
		<rect x="527" y="527" width="31" height="31" />
		<rect x="589" y="527" width="31" height="31" />
		<rect x="620" y="527" width="31" height="31" />
		<rect x="651" y="527" width="31" height="31" />
		<rect x="682" y="527" width="31" height="31" />
		<rect x="713" y="527" width="31" height="31" />
		<rect x="775" y="527" width="31" height="31" />
		<rect x="806" y="527" width="31" height="31" />
		<rect x="837" y="527" width="31" height="31" />
		<rect x="868" y="527" width="31" height="31" />
		<rect x="930" y="527" width="31" height="31" />
		<rect x="961" y="527" width="31" height="31" />
		<rect x="992" y="527" width="31" height="31" />
		<rect x="124" y="558" width="31" height="31" />
		<rect x="155" y="558" width="31" height="31" />
		<rect x="186" y="558" width="31" height="31" />
		<rect x="341" y="558" width="31" height="31" />
		<rect x="403" y="558" width="31" height="31" />
		<rect x="434" y="558" width="31" height="31" />
		<rect x="465" y="558" width="31" height="31" />
		<rect x="496" y="558" width="31" height="31" />
		<rect x="589" y="558" width="31" height="31" />
		<rect x="620" y="558" width="31" height="31" />
		<rect x="682" y="558" width="31" height="31" />
		<rect x="775" y="558" width="31" height="31" />
		<rect x="806" y="558" width="31" height="31" />
		<rect x="868" y="558" width="31" height="31" />
		<rect x="930" y="558" width="31" height="31" />
		<rect x="961" y="558" width="31" height="31" />
		<rect x="0" y="589" width="31" height="31" />
		<rect x="31" y="589" width="31" height="31" />
		<rect x="62" y="589" width="31" height="31" />
		<rect x="124" y="589" width="31" height="31" />
		<rect x="279" y="589" width="31" height="31" />
		<rect x="310" y="589" width="31" height="31" />
		<rect x="341" y="589" width="31" height="31" />
		<rect x="496" y="589" width="31" height="31" />
		<rect x="527" y="589" width="31" height="31" />
		<rect x="558" y="589" width="31" height="31" />
		<rect x="620" y="589" width="31" height="31" />
		<rect x="682" y="589" width="31" height="31" />
		<rect x="837" y="589" width="31" height="31" />
		<rect x="868" y="589" width="31" height="31" />
		<rect x="31" y="620" width="31" height="31" />
		<rect x="93" y="620" width="31" height="31" />
		<rect x="155" y="620" width="31" height="31" />
		<rect x="186" y="620" width="31" height="31" />
		<rect x="248" y="620" width="31" height="31" />
		<rect x="279" y="620" width="31" height="31" />
		<rect x="310" y="620" width="31" height="31" />
		<rect x="372" y="620" width="31" height="31" />
		<rect x="434" y="620" width="31" height="31" />
		<rect x="527" y="620" width="31" height="31" />
		<rect x="651" y="620" width="31" height="31" />
		<rect x="744" y="620" width="31" height="31" />
		<rect x="806" y="620" width="31" height="31" />
		<rect x="899" y="620" width="31" height="31" />
		<rect x="930" y="620" width="31" height="31" />
		<rect x="961" y="620" width="31" height="31" />
		<rect x="0" y="651" width="31" height="31" />
		<rect x="62" y="651" width="31" height="31" />
		<rect x="124" y="651" width="31" height="31" />
		<rect x="155" y="651" width="31" height="31" />
		<rect x="217" y="651" width="31" height="31" />
		<rect x="341" y="651" width="31" height="31" />
		<rect x="372" y="651" width="31" height="31" />
		<rect x="527" y="651" width="31" height="31" />
		<rect x="589" y="651" width="31" height="31" />
		<rect x="620" y="651" width="31" height="31" />
		<rect x="744" y="651" width="31" height="31" />
		<rect x="899" y="651" width="31" height="31" />
		<rect x="930" y="651" width="31" height="31" />
		<rect x="992" y="651" width="31" height="31" />
		<rect x="155" y="682" width="31" height="31" />
		<rect x="186" y="682" width="31" height="31" />
		<rect x="248" y="682" width="31" height="31" />
		<rect x="372" y="682" width="31" height="31" />
		<rect x="403" y="682" width="31" height="31" />
		<rect x="496" y="682" width="31" height="31" />
		<rect x="589" y="682" width="31" height="31" />
		<rect x="651" y="682" width="31" height="31" />
		<rect x="682" y="682" width="31" height="31" />
		<rect x="713" y="682" width="31" height="31" />
		<rect x="744" y="682" width="31" height="31" />
		<rect x="806" y="682" width="31" height="31" />
		<rect x="868" y="682" width="31" height="31" />
		<rect x="992" y="682" width="31" height="31" />
		<rect x="31" y="713" width="31" height="31" />
		<rect x="62" y="713" width="31" height="31" />
		<rect x="93" y="713" width="31" height="31" />
		<rect x="124" y="713" width="31" height="31" />
		<rect x="155" y="713" width="31" height="31" />
		<rect x="248" y="713" width="31" height="31" />
		<rect x="279" y="713" width="31" height="31" />
		<rect x="310" y="713" width="31" height="31" />
		<rect x="403" y="713" width="31" height="31" />
		<rect x="434" y="713" width="31" height="31" />
		<rect x="496" y="713" width="31" height="31" />
		<rect x="558" y="713" width="31" height="31" />
		<rect x="589" y="713" width="31" height="31" />
		<rect x="775" y="713" width="31" height="31" />
		<rect x="837" y="713" width="31" height="31" />
		<rect x="899" y="713" width="31" height="31" />
		<rect x="0" y="744" width="31" height="31" />
		<rect x="124" y="744" width="31" height="31" />
		<rect x="186" y="744" width="31" height="31" />
		<rect x="217" y="744" width="31" height="31" />
		<rect x="372" y="744" width="31" height="31" />
		<rect x="496" y="744" width="31" height="31" />
		<rect x="558" y="744" width="31" height="31" />
		<rect x="589" y="744" width="31" height="31" />
		<rect x="620" y="744" width="31" height="31" />
		<rect x="682" y="744" width="31" height="31" />
		<rect x="744" y="744" width="31" height="31" />
		<rect x="775" y="744" width="31" height="31" />
		<rect x="806" y="744" width="31" height="31" />
		<rect x="837" y="744" width="31" height="31" />
		<rect x="868" y="744" width="31" height="31" />
		<rect x="961" y="744" width="31" height="31" />
		<rect x="992" y="744" width="31" height="31" />
		<rect x="248" y="775" width="31" height="31" />
		<rect x="279" y="775" width="31" height="31" />
		<rect x="310" y="775" width="31" height="31" />
		<rect x="372" y="775" width="31" height="31" />
		<rect x="403" y="775" width="31" height="31" />
		<rect x="434" y="775" width="31" height="31" />
		<rect x="465" y="775" width="31" height="31" />
		<rect x="496" y="775" width="31" height="31" />
		<rect x="527" y="775" width="31" height="31" />
		<rect x="589" y="775" width="31" height="31" />
		<rect x="651" y="775" width="31" height="31" />
		<rect x="682" y="775" width="31" height="31" />
		<rect x="713" y="775" width="31" height="31" />
		<rect x="744" y="775" width="31" height="31" />
		<rect x="868" y="775" width="31" height="31" />
		<rect x="961" y="775" width="31" height="31" />
		<rect x="248" y="806" width="31" height="31" />
		<rect x="279" y="806" width="31" height="31" />
		<rect x="372" y="806" width="31" height="31" />
		<rect x="465" y="806" width="31" height="31" />
		<rect x="496" y="806" width="31" height="31" />
		<rect x="527" y="806" width="31" height="31" />
		<rect x="558" y="806" width="31" height="31" />
		<rect x="589" y="806" width="31" height="31" />
		<rect x="651" y="806" width="31" height="31" />
		<rect x="713" y="806" width="31" height="31" />
		<rect x="744" y="806" width="31" height="31" />
		<rect x="806" y="806" width="31" height="31" />
		<rect x="868" y="806" width="31" height="31" />
		<rect x="899" y="806" width="31" height="31" />
		<rect x="310" y="837" width="31" height="31" />
		<rect x="341" y="837" width="31" height="31" />
		<rect x="403" y="837" width="31" height="31" />
		<rect x="527" y="837" width="31" height="31" />
		<rect x="558" y="837" width="31" height="31" />
		<rect x="589" y="837" width="31" height="31" />
		<rect x="620" y="837" width="31" height="31" />
		<rect x="713" y="837" width="31" height="31" />
		<rect x="744" y="837" width="31" height="31" />
		<rect x="868" y="837" width="31" height="31" />
		<rect x="930" y="837" width="31" height="31" />
		<rect x="961" y="837" width="31" height="31" />
		<rect x="992" y="837" width="31" height="31" />
		<rect x="434" y="868" width="31" height="31" />
		<rect x="527" y="868" width="31" height="31" />
		<rect x="620" y="868" width="31" height="31" />
		<rect x="682" y="868" width="31" height="31" />
		<rect x="713" y="868" width="31" height="31" />
		<rect x="744" y="868" width="31" height="31" />
		<rect x="775" y="868" width="31" height="31" />
		<rect x="806" y="868" width="31" height="31" />
		<rect x="837" y="868" width="31" height="31" />
		<rect x="868" y="868" width="31" height="31" />
		<rect x="899" y="868" width="31" height="31" />
		<rect x="930" y="868" width="31" height="31" />
		<rect x="961" y="868" width="31" height="31" />
		<rect x="248" y="899" width="31" height="31" />
		<rect x="279" y="899" width="31" height="31" />
		<rect x="341" y="899" width="31" height="31" />
		<rect x="403" y="899" width="31" height="31" />
		<rect x="465" y="899" width="31" height="31" />
		<rect x="496" y="899" width="31" height="31" />
		<rect x="558" y="899" width="31" height="31" />
		<rect x="589" y="899" width="31" height="31" />
		<rect x="620" y="899" width="31" height="31" />
		<rect x="651" y="899" width="31" height="31" />
		<rect x="682" y="899" width="31" height="31" />
		<rect x="713" y="899" width="31" height="31" />
		<rect x="837" y="899" width="31" height="31" />
		<rect x="899" y="899" width="31" height="31" />
		<rect x="930" y="899" width="31" height="31" />
		<rect x="248" y="930" width="31" height="31" />
		<rect x="403" y="930" width="31" height="31" />
		<rect x="620" y="930" width="31" height="31" />
		<rect x="682" y="930" width="31" height="31" />
		<rect x="744" y="930" width="31" height="31" />
		<rect x="775" y="930" width="31" height="31" />
		<rect x="806" y="930" width="31" height="31" />
		<rect x="279" y="961" width="31" height="31" />
		<rect x="341" y="961" width="31" height="31" />
		<rect x="372" y="961" width="31" height="31" />
		<rect x="434" y="961" width="31" height="31" />
		<rect x="589" y="961" width="31" height="31" />
		<rect x="620" y="961" width="31" height="31" />
		<rect x="682" y="961" width="31" height="31" />
		<rect x="713" y="961" width="31" height="31" />
		<rect x="744" y="961" width="31" height="31" />
		<rect x="775" y="961" width="31" height="31" />
		<rect x="930" y="961" width="31" height="31" />
		<rect x="992" y="961" width="31" height="31" />
		<rect x="310" y="992" width="31" height="31" />
		<rect x="403" y="992" width="31" height="31" />
		<rect x="434" y="992" width="31" height="31" />
		<rect x="465" y="992" width="31" height="31" />
		<rect x="558" y="992" width="31" height="31" />
		<rect x="620" y="992" width="31" height="31" />
		<rect x="651" y="992" width="31" height="31" />
		<rect x="806" y="992" width="31" height="31" />
		<rect x="837" y="992" width="31" height="31" />
		<rect x="868" y="992" width="31" height="31" />

		<use href="#venmo-qr-marker" x="0" y="0" />
		<use href="#venmo-qr-marker" x="806" y="0" />
		<use href="#venmo-qr-marker" x="0" y="806" />

		<rect x="62" y="62" width="93" height="93" />
		<rect x="868" y="62" width="93" height="93" />
		<rect x="62" y="868" width="93" height="93" />

		<svg x="350" y="350" width="325" height="325" viewBox="0 0 512 512">
		  <circle fill="#ff00c7" cx="50%" cy="50%" r="256" stroke-width="22" stroke="#fff" />
			<svg x="10%" y="10%" width="80%" height="80%" viewBox="0 0 24 24">
				<path fill="#ffffff" d="M21.772 13.119c-.267 0-.381-.251-.38-.655 0-.533.121-1.575.712-1.575.267 0 .357.243.357.598 0 .533-.13 1.632-.689 1.632Zm.502-3.377c-1.677 0-2.405 1.285-2.405 2.658 0 1.042.421 1.874 1.693 1.874 1.717 0 2.438-1.406 2.438-2.763 0-1.025-.462-1.769-1.726-1.769Zm-3.833 0c-.558 0-.964.17-1.393.477-.154-.275-.462-.477-.932-.477-.542 0-.947.219-1.247.437l-.04-.364H13.54l-.688 4.354h1.506l.479-3.053c.129-.065.323-.154.518-.154.145 0 .267.049.267.267 0 .056-.016.145-.024.218l-.429 2.722h1.498l.478-3.053c.138-.073.324-.154.51-.154.146 0 .268.049.268.267 0 .056-.017.145-.025.218l-.429 2.722h1.499l.461-2.908c.025-.153.049-.388.049-.549 0-.582-.267-.97-1.037-.97Zm-6.871 0c-.575 0-.98.219-1.287.421l-.017-.348H8.962l-.689 4.354H9.78l.478-3.053c.13-.065.324-.154.518-.154.147 0 .268.049.268.242 0 .081-.024.227-.032.299l-.422 2.666h1.499l.462-2.908c.024-.153.049-.388.049-.549 0-.582-.268-.97-1.03-.97Zm-5.631 1.834c.041-.485.413-.824.697-.824.162 0 .299.097.299.291 0 .404-.713.533-.996.533Zm.843-1.834c-1.604 0-2.382 1.39-2.382 2.698 0 1.01.478 1.817 1.814 1.817.527 0 1.07-.113 1.418-.282l.186-1.26c-.494.25-.874.347-1.271.347-.365 0-.64-.194-.64-.687.826-.008 2.252-.347 2.252-1.453 0-.687-.494-1.18-1.377-1.18Zm-4.239.267c.089.186.146.412.146.743 0 .606-.429 1.494-.777 2.06l-.373-2.989L0 9.969l.705 4.2h1.757c.77-1.01 1.718-2.448 1.718-3.554 0-.347-.073-.622-.235-.889l-1.402.283Z" />
			</svg>
		</svg>
  </g>
</svg>
