
<svg alt="XRP Donation" viewBox="0 0 1125 1125" fill="#000000" xml:space="preserve" xmlns="http://www.w3.org/2000/svg">
	<defs>
		<rect id="xrp-qr-marker" x="13.125" y="13.125" width="148.75" height="148.75" fill="none" stroke="#000" stroke-width="26.25" />
	</defs>
	<rect x="0" y="0" width="1125" height="1125" fill="rgb(255,255,255)" />
	<g transform="translate(50,50)">
		<rect x="350" y="0" width="25" height="25" />
		<rect x="400" y="0" width="25" height="25" />
		<rect x="425" y="0" width="25" height="25" />
		<rect x="475" y="0" width="25" height="25" />
		<rect x="500" y="0" width="25" height="25" />
		<rect x="625" y="0" width="25" height="25" />
		<rect x="725" y="0" width="25" height="25" />
		<rect x="750" y="0" width="25" height="25" />
		<rect x="775" y="0" width="25" height="25" />
		<rect x="225" y="25" width="25" height="25" />
		<rect x="250" y="25" width="25" height="25" />
		<rect x="300" y="25" width="25" height="25" />
		<rect x="350" y="25" width="25" height="25" />
		<rect x="375" y="25" width="25" height="25" />
		<rect x="400" y="25" width="25" height="25" />
		<rect x="425" y="25" width="25" height="25" />
		<rect x="450" y="25" width="25" height="25" />
		<rect x="475" y="25" width="25" height="25" />
		<rect x="500" y="25" width="25" height="25" />
		<rect x="525" y="25" width="25" height="25" />
		<rect x="550" y="25" width="25" height="25" />
		<rect x="575" y="25" width="25" height="25" />
		<rect x="625" y="25" width="25" height="25" />
		<rect x="650" y="25" width="25" height="25" />
		<rect x="725" y="25" width="25" height="25" />
		<rect x="750" y="25" width="25" height="25" />
		<rect x="775" y="25" width="25" height="25" />
		<rect x="200" y="50" width="25" height="25" />
		<rect x="350" y="50" width="25" height="25" />
		<rect x="400" y="50" width="25" height="25" />
		<rect x="500" y="50" width="25" height="25" />
		<rect x="575" y="50" width="25" height="25" />
		<rect x="600" y="50" width="25" height="25" />
		<rect x="625" y="50" width="25" height="25" />
		<rect x="650" y="50" width="25" height="25" />
		<rect x="675" y="50" width="25" height="25" />
		<rect x="750" y="50" width="25" height="25" />
		<rect x="800" y="50" width="25" height="25" />
		<rect x="200" y="75" width="25" height="25" />
		<rect x="225" y="75" width="25" height="25" />
		<rect x="250" y="75" width="25" height="25" />
		<rect x="350" y="75" width="25" height="25" />
		<rect x="400" y="75" width="25" height="25" />
		<rect x="575" y="75" width="25" height="25" />
		<rect x="600" y="75" width="25" height="25" />
		<rect x="650" y="75" width="25" height="25" />
		<rect x="725" y="75" width="25" height="25" />
		<rect x="750" y="75" width="25" height="25" />
		<rect x="800" y="75" width="25" height="25" />
		<rect x="250" y="100" width="25" height="25" />
		<rect x="300" y="100" width="25" height="25" />
		<rect x="325" y="100" width="25" height="25" />
		<rect x="400" y="100" width="25" height="25" />
		<rect x="475" y="100" width="25" height="25" />
		<rect x="500" y="100" width="25" height="25" />
		<rect x="525" y="100" width="25" height="25" />
		<rect x="550" y="100" width="25" height="25" />
		<rect x="575" y="100" width="25" height="25" />
		<rect x="675" y="100" width="25" height="25" />
		<rect x="700" y="100" width="25" height="25" />
		<rect x="725" y="100" width="25" height="25" />
		<rect x="325" y="125" width="25" height="25" />
		<rect x="350" y="125" width="25" height="25" />
		<rect x="375" y="125" width="25" height="25" />
		<rect x="400" y="125" width="25" height="25" />
		<rect x="425" y="125" width="25" height="25" />
		<rect x="450" y="125" width="25" height="25" />
		<rect x="475" y="125" width="25" height="25" />
		<rect x="525" y="125" width="25" height="25" />
		<rect x="550" y="125" width="25" height="25" />
		<rect x="700" y="125" width="25" height="25" />
		<rect x="800" y="125" width="25" height="25" />
		<rect x="200" y="150" width="25" height="25" />
		<rect x="250" y="150" width="25" height="25" />
		<rect x="300" y="150" width="25" height="25" />
		<rect x="350" y="150" width="25" height="25" />
		<rect x="400" y="150" width="25" height="25" />
		<rect x="450" y="150" width="25" height="25" />
		<rect x="500" y="150" width="25" height="25" />
		<rect x="550" y="150" width="25" height="25" />
		<rect x="600" y="150" width="25" height="25" />
		<rect x="650" y="150" width="25" height="25" />
		<rect x="700" y="150" width="25" height="25" />
		<rect x="750" y="150" width="25" height="25" />
		<rect x="800" y="150" width="25" height="25" />
		<rect x="250" y="175" width="25" height="25" />
		<rect x="350" y="175" width="25" height="25" />
		<rect x="425" y="175" width="25" height="25" />
		<rect x="475" y="175" width="25" height="25" />
		<rect x="500" y="175" width="25" height="25" />
		<rect x="550" y="175" width="25" height="25" />
		<rect x="625" y="175" width="25" height="25" />
		<rect x="675" y="175" width="25" height="25" />
		<rect x="800" y="175" width="25" height="25" />
		<rect x="75" y="200" width="25" height="25" />
		<rect x="100" y="200" width="25" height="25" />
		<rect x="150" y="200" width="25" height="25" />
		<rect x="175" y="200" width="25" height="25" />
		<rect x="225" y="200" width="25" height="25" />
		<rect x="325" y="200" width="25" height="25" />
		<rect x="450" y="200" width="25" height="25" />
		<rect x="525" y="200" width="25" height="25" />
		<rect x="550" y="200" width="25" height="25" />
		<rect x="600" y="200" width="25" height="25" />
		<rect x="625" y="200" width="25" height="25" />
		<rect x="675" y="200" width="25" height="25" />
		<rect x="700" y="200" width="25" height="25" />
		<rect x="725" y="200" width="25" height="25" />
		<rect x="750" y="200" width="25" height="25" />
		<rect x="775" y="200" width="25" height="25" />
		<rect x="800" y="200" width="25" height="25" />
		<rect x="925" y="200" width="25" height="25" />
		<rect x="950" y="200" width="25" height="25" />
		<rect x="0" y="225" width="25" height="25" />
		<rect x="25" y="225" width="25" height="25" />
		<rect x="75" y="225" width="25" height="25" />
		<rect x="125" y="225" width="25" height="25" />
		<rect x="225" y="225" width="25" height="25" />
		<rect x="250" y="225" width="25" height="25" />
		<rect x="350" y="225" width="25" height="25" />
		<rect x="375" y="225" width="25" height="25" />
		<rect x="400" y="225" width="25" height="25" />
		<rect x="475" y="225" width="25" height="25" />
		<rect x="550" y="225" width="25" height="25" />
		<rect x="600" y="225" width="25" height="25" />
		<rect x="650" y="225" width="25" height="25" />
		<rect x="675" y="225" width="25" height="25" />
		<rect x="725" y="225" width="25" height="25" />
		<rect x="775" y="225" width="25" height="25" />
		<rect x="825" y="225" width="25" height="25" />
		<rect x="875" y="225" width="25" height="25" />
		<rect x="900" y="225" width="25" height="25" />
		<rect x="950" y="225" width="25" height="25" />
		<rect x="975" y="225" width="25" height="25" />
		<rect x="50" y="250" width="25" height="25" />
		<rect x="125" y="250" width="25" height="25" />
		<rect x="150" y="250" width="25" height="25" />
		<rect x="225" y="250" width="25" height="25" />
		<rect x="275" y="250" width="25" height="25" />
		<rect x="325" y="250" width="25" height="25" />
		<rect x="350" y="250" width="25" height="25" />
		<rect x="375" y="250" width="25" height="25" />
		<rect x="400" y="250" width="25" height="25" />
		<rect x="425" y="250" width="25" height="25" />
		<rect x="500" y="250" width="25" height="25" />
		<rect x="550" y="250" width="25" height="25" />
		<rect x="600" y="250" width="25" height="25" />
		<rect x="675" y="250" width="25" height="25" />
		<rect x="700" y="250" width="25" height="25" />
		<rect x="725" y="250" width="25" height="25" />
		<rect x="750" y="250" width="25" height="25" />
		<rect x="800" y="250" width="25" height="25" />
		<rect x="900" y="250" width="25" height="25" />
		<rect x="975" y="250" width="25" height="25" />
		<rect x="0" y="275" width="25" height="25" />
		<rect x="25" y="275" width="25" height="25" />
		<rect x="75" y="275" width="25" height="25" />
		<rect x="175" y="275" width="25" height="25" />
		<rect x="200" y="275" width="25" height="25" />
		<rect x="225" y="275" width="25" height="25" />
		<rect x="250" y="275" width="25" height="25" />
		<rect x="275" y="275" width="25" height="25" />
		<rect x="300" y="275" width="25" height="25" />
		<rect x="325" y="275" width="25" height="25" />
		<rect x="350" y="275" width="25" height="25" />
		<rect x="375" y="275" width="25" height="25" />
		<rect x="400" y="275" width="25" height="25" />
		<rect x="450" y="275" width="25" height="25" />
		<rect x="500" y="275" width="25" height="25" />
		<rect x="525" y="275" width="25" height="25" />
		<rect x="550" y="275" width="25" height="25" />
		<rect x="575" y="275" width="25" height="25" />
		<rect x="625" y="275" width="25" height="25" />
		<rect x="650" y="275" width="25" height="25" />
		<rect x="700" y="275" width="25" height="25" />
		<rect x="725" y="275" width="25" height="25" />
		<rect x="750" y="275" width="25" height="25" />
		<rect x="775" y="275" width="25" height="25" />
		<rect x="825" y="275" width="25" height="25" />
		<rect x="875" y="275" width="25" height="25" />
		<rect x="900" y="275" width="25" height="25" />
		<rect x="925" y="275" width="25" height="25" />
		<rect x="975" y="275" width="25" height="25" />
		<rect x="1000" y="275" width="25" height="25" />
		<rect x="25" y="300" width="25" height="25" />
		<rect x="150" y="300" width="25" height="25" />
		<rect x="175" y="300" width="25" height="25" />
		<rect x="225" y="300" width="25" height="25" />
		<rect x="250" y="300" width="25" height="25" />
		<rect x="300" y="300" width="25" height="25" />
		<rect x="350" y="300" width="25" height="25" />
		<rect x="400" y="300" width="25" height="25" />
		<rect x="525" y="300" width="25" height="25" />
		<rect x="550" y="300" width="25" height="25" />
		<rect x="575" y="300" width="25" height="25" />
		<rect x="650" y="300" width="25" height="25" />
		<rect x="700" y="300" width="25" height="25" />
		<rect x="775" y="300" width="25" height="25" />
		<rect x="825" y="300" width="25" height="25" />
		<rect x="850" y="300" width="25" height="25" />
		<rect x="875" y="300" width="25" height="25" />
		<rect x="925" y="300" width="25" height="25" />
		<rect x="0" y="325" width="25" height="25" />
		<rect x="100" y="325" width="25" height="25" />
		<rect x="125" y="325" width="25" height="25" />
		<rect x="225" y="325" width="25" height="25" />
		<rect x="250" y="325" width="25" height="25" />
		<rect x="350" y="325" width="25" height="25" />
		<rect x="400" y="325" width="25" height="25" />
		<rect x="425" y="325" width="25" height="25" />
		<rect x="525" y="325" width="25" height="25" />
		<rect x="550" y="325" width="25" height="25" />
		<rect x="575" y="325" width="25" height="25" />
		<rect x="650" y="325" width="25" height="25" />
		<rect x="700" y="325" width="25" height="25" />
		<rect x="725" y="325" width="25" height="25" />
		<rect x="750" y="325" width="25" height="25" />
		<rect x="800" y="325" width="25" height="25" />
		<rect x="825" y="325" width="25" height="25" />
		<rect x="850" y="325" width="25" height="25" />
		<rect x="875" y="325" width="25" height="25" />
		<rect x="900" y="325" width="25" height="25" />
		<rect x="925" y="325" width="25" height="25" />
		<rect x="950" y="325" width="25" height="25" />
		<rect x="975" y="325" width="25" height="25" />
		<rect x="1000" y="325" width="25" height="25" />
		<rect x="0" y="350" width="25" height="25" />
		<rect x="50" y="350" width="25" height="25" />
		<rect x="75" y="350" width="25" height="25" />
		<rect x="150" y="350" width="25" height="25" />
		<rect x="200" y="350" width="25" height="25" />
		<rect x="250" y="350" width="25" height="25" />
		<rect x="275" y="350" width="25" height="25" />
		<rect x="300" y="350" width="25" height="25" />
		<rect x="325" y="350" width="25" height="25" />
		<rect x="350" y="350" width="25" height="25" />
		<rect x="375" y="350" width="25" height="25" />
		<rect x="525" y="350" width="25" height="25" />
		<rect x="550" y="350" width="25" height="25" />
		<rect x="575" y="350" width="25" height="25" />
		<rect x="625" y="350" width="25" height="25" />
		<rect x="700" y="350" width="25" height="25" />
		<rect x="725" y="350" width="25" height="25" />
		<rect x="750" y="350" width="25" height="25" />
		<rect x="775" y="350" width="25" height="25" />
		<rect x="800" y="350" width="25" height="25" />
		<rect x="900" y="350" width="25" height="25" />
		<rect x="950" y="350" width="25" height="25" />
		<rect x="975" y="350" width="25" height="25" />
		<rect x="1000" y="350" width="25" height="25" />
		<rect x="100" y="375" width="25" height="25" />
		<rect x="200" y="375" width="25" height="25" />
		<rect x="250" y="375" width="25" height="25" />
		<rect x="325" y="375" width="25" height="25" />
		<rect x="350" y="375" width="25" height="25" />
		<rect x="375" y="375" width="25" height="25" />
		<rect x="475" y="375" width="25" height="25" />
		<rect x="575" y="375" width="25" height="25" />
		<rect x="600" y="375" width="25" height="25" />
		<rect x="625" y="375" width="25" height="25" />
		<rect x="675" y="375" width="25" height="25" />
		<rect x="800" y="375" width="25" height="25" />
		<rect x="850" y="375" width="25" height="25" />
		<rect x="925" y="375" width="25" height="25" />
		<rect x="950" y="375" width="25" height="25" />
		<rect x="975" y="375" width="25" height="25" />
		<rect x="1000" y="375" width="25" height="25" />
		<rect x="150" y="400" width="25" height="25" />
		<rect x="175" y="400" width="25" height="25" />
		<rect x="225" y="400" width="25" height="25" />
		<rect x="500" y="400" width="25" height="25" />
		<rect x="525" y="400" width="25" height="25" />
		<rect x="575" y="400" width="25" height="25" />
		<rect x="725" y="400" width="25" height="25" />
		<rect x="875" y="400" width="25" height="25" />
		<rect x="975" y="400" width="25" height="25" />
		<rect x="25" y="425" width="25" height="25" />
		<rect x="75" y="425" width="25" height="25" />
		<rect x="175" y="425" width="25" height="25" />
		<rect x="200" y="425" width="25" height="25" />
		<rect x="225" y="425" width="25" height="25" />
		<rect x="300" y="425" width="25" height="25" />
		<rect x="325" y="425" width="25" height="25" />
		<rect x="375" y="425" width="25" height="25" />
		<rect x="400" y="425" width="25" height="25" />
		<rect x="525" y="425" width="25" height="25" />
		<rect x="550" y="425" width="25" height="25" />
		<rect x="575" y="425" width="25" height="25" />
		<rect x="650" y="425" width="25" height="25" />
		<rect x="675" y="425" width="25" height="25" />
		<rect x="800" y="425" width="25" height="25" />
		<rect x="900" y="425" width="25" height="25" />
		<rect x="925" y="425" width="25" height="25" />
		<rect x="975" y="425" width="25" height="25" />
		<rect x="0" y="450" width="25" height="25" />
		<rect x="50" y="450" width="25" height="25" />
		<rect x="75" y="450" width="25" height="25" />
		<rect x="150" y="450" width="25" height="25" />
		<rect x="250" y="450" width="25" height="25" />
		<rect x="275" y="450" width="25" height="25" />
		<rect x="325" y="450" width="25" height="25" />
		<rect x="400" y="450" width="25" height="25" />
		<rect x="425" y="450" width="25" height="25" />
		<rect x="450" y="450" width="25" height="25" />
		<rect x="475" y="450" width="25" height="25" />
		<rect x="525" y="450" width="25" height="25" />
		<rect x="550" y="450" width="25" height="25" />
		<rect x="575" y="450" width="25" height="25" />
		<rect x="600" y="450" width="25" height="25" />
		<rect x="625" y="450" width="25" height="25" />
		<rect x="675" y="450" width="25" height="25" />
		<rect x="725" y="450" width="25" height="25" />
		<rect x="750" y="450" width="25" height="25" />
		<rect x="775" y="450" width="25" height="25" />
		<rect x="800" y="450" width="25" height="25" />
		<rect x="850" y="450" width="25" height="25" />
		<rect x="875" y="450" width="25" height="25" />
		<rect x="900" y="450" width="25" height="25" />
		<rect x="925" y="450" width="25" height="25" />
		<rect x="1000" y="450" width="25" height="25" />
		<rect x="0" y="475" width="25" height="25" />
		<rect x="50" y="475" width="25" height="25" />
		<rect x="75" y="475" width="25" height="25" />
		<rect x="125" y="475" width="25" height="25" />
		<rect x="225" y="475" width="25" height="25" />
		<rect x="250" y="475" width="25" height="25" />
		<rect x="275" y="475" width="25" height="25" />
		<rect x="300" y="475" width="25" height="25" />
		<rect x="400" y="475" width="25" height="25" />
		<rect x="425" y="475" width="25" height="25" />
		<rect x="450" y="475" width="25" height="25" />
		<rect x="475" y="475" width="25" height="25" />
		<rect x="500" y="475" width="25" height="25" />
		<rect x="525" y="475" width="25" height="25" />
		<rect x="550" y="475" width="25" height="25" />
		<rect x="625" y="475" width="25" height="25" />
		<rect x="675" y="475" width="25" height="25" />
		<rect x="700" y="475" width="25" height="25" />
		<rect x="750" y="475" width="25" height="25" />
		<rect x="825" y="475" width="25" height="25" />
		<rect x="900" y="475" width="25" height="25" />
		<rect x="950" y="475" width="25" height="25" />
		<rect x="1000" y="475" width="25" height="25" />
		<rect x="0" y="500" width="25" height="25" />
		<rect x="50" y="500" width="25" height="25" />
		<rect x="100" y="500" width="25" height="25" />
		<rect x="150" y="500" width="25" height="25" />
		<rect x="175" y="500" width="25" height="25" />
		<rect x="225" y="500" width="25" height="25" />
		<rect x="250" y="500" width="25" height="25" />
		<rect x="350" y="500" width="25" height="25" />
		<rect x="575" y="500" width="25" height="25" />
		<rect x="650" y="500" width="25" height="25" />
		<rect x="750" y="500" width="25" height="25" />
		<rect x="825" y="500" width="25" height="25" />
		<rect x="850" y="500" width="25" height="25" />
		<rect x="875" y="500" width="25" height="25" />
		<rect x="950" y="500" width="25" height="25" />
		<rect x="0" y="525" width="25" height="25" />
		<rect x="100" y="525" width="25" height="25" />
		<rect x="125" y="525" width="25" height="25" />
		<rect x="200" y="525" width="25" height="25" />
		<rect x="225" y="525" width="25" height="25" />
		<rect x="300" y="525" width="25" height="25" />
		<rect x="325" y="525" width="25" height="25" />
		<rect x="450" y="525" width="25" height="25" />
		<rect x="475" y="525" width="25" height="25" />
		<rect x="500" y="525" width="25" height="25" />
		<rect x="550" y="525" width="25" height="25" />
		<rect x="575" y="525" width="25" height="25" />
		<rect x="600" y="525" width="25" height="25" />
		<rect x="625" y="525" width="25" height="25" />
		<rect x="650" y="525" width="25" height="25" />
		<rect x="750" y="525" width="25" height="25" />
		<rect x="825" y="525" width="25" height="25" />
		<rect x="900" y="525" width="25" height="25" />
		<rect x="925" y="525" width="25" height="25" />
		<rect x="950" y="525" width="25" height="25" />
		<rect x="975" y="525" width="25" height="25" />
		<rect x="25" y="550" width="25" height="25" />
		<rect x="75" y="550" width="25" height="25" />
		<rect x="150" y="550" width="25" height="25" />
		<rect x="175" y="550" width="25" height="25" />
		<rect x="200" y="550" width="25" height="25" />
		<rect x="250" y="550" width="25" height="25" />
		<rect x="400" y="550" width="25" height="25" />
		<rect x="425" y="550" width="25" height="25" />
		<rect x="450" y="550" width="25" height="25" />
		<rect x="500" y="550" width="25" height="25" />
		<rect x="525" y="550" width="25" height="25" />
		<rect x="550" y="550" width="25" height="25" />
		<rect x="575" y="550" width="25" height="25" />
		<rect x="675" y="550" width="25" height="25" />
		<rect x="750" y="550" width="25" height="25" />
		<rect x="800" y="550" width="25" height="25" />
		<rect x="825" y="550" width="25" height="25" />
		<rect x="850" y="550" width="25" height="25" />
		<rect x="900" y="550" width="25" height="25" />
		<rect x="950" y="550" width="25" height="25" />
		<rect x="25" y="575" width="25" height="25" />
		<rect x="200" y="575" width="25" height="25" />
		<rect x="225" y="575" width="25" height="25" />
		<rect x="275" y="575" width="25" height="25" />
		<rect x="325" y="575" width="25" height="25" />
		<rect x="425" y="575" width="25" height="25" />
		<rect x="500" y="575" width="25" height="25" />
		<rect x="525" y="575" width="25" height="25" />
		<rect x="550" y="575" width="25" height="25" />
		<rect x="625" y="575" width="25" height="25" />
		<rect x="675" y="575" width="25" height="25" />
		<rect x="700" y="575" width="25" height="25" />
		<rect x="725" y="575" width="25" height="25" />
		<rect x="750" y="575" width="25" height="25" />
		<rect x="775" y="575" width="25" height="25" />
		<rect x="825" y="575" width="25" height="25" />
		<rect x="850" y="575" width="25" height="25" />
		<rect x="875" y="575" width="25" height="25" />
		<rect x="0" y="600" width="25" height="25" />
		<rect x="50" y="600" width="25" height="25" />
		<rect x="75" y="600" width="25" height="25" />
		<rect x="150" y="600" width="25" height="25" />
		<rect x="200" y="600" width="25" height="25" />
		<rect x="275" y="600" width="25" height="25" />
		<rect x="300" y="600" width="25" height="25" />
		<rect x="375" y="600" width="25" height="25" />
		<rect x="400" y="600" width="25" height="25" />
		<rect x="450" y="600" width="25" height="25" />
		<rect x="550" y="600" width="25" height="25" />
		<rect x="675" y="600" width="25" height="25" />
		<rect x="775" y="600" width="25" height="25" />
		<rect x="850" y="600" width="25" height="25" />
		<rect x="1000" y="600" width="25" height="25" />
		<rect x="0" y="625" width="25" height="25" />
		<rect x="25" y="625" width="25" height="25" />
		<rect x="50" y="625" width="25" height="25" />
		<rect x="75" y="625" width="25" height="25" />
		<rect x="100" y="625" width="25" height="25" />
		<rect x="175" y="625" width="25" height="25" />
		<rect x="225" y="625" width="25" height="25" />
		<rect x="275" y="625" width="25" height="25" />
		<rect x="300" y="625" width="25" height="25" />
		<rect x="375" y="625" width="25" height="25" />
		<rect x="400" y="625" width="25" height="25" />
		<rect x="475" y="625" width="25" height="25" />
		<rect x="550" y="625" width="25" height="25" />
		<rect x="575" y="625" width="25" height="25" />
		<rect x="625" y="625" width="25" height="25" />
		<rect x="650" y="625" width="25" height="25" />
		<rect x="675" y="625" width="25" height="25" />
		<rect x="700" y="625" width="25" height="25" />
		<rect x="725" y="625" width="25" height="25" />
		<rect x="750" y="625" width="25" height="25" />
		<rect x="850" y="625" width="25" height="25" />
		<rect x="875" y="625" width="25" height="25" />
		<rect x="900" y="625" width="25" height="25" />
		<rect x="925" y="625" width="25" height="25" />
		<rect x="975" y="625" width="25" height="25" />
		<rect x="1000" y="625" width="25" height="25" />
		<rect x="0" y="650" width="25" height="25" />
		<rect x="25" y="650" width="25" height="25" />
		<rect x="50" y="650" width="25" height="25" />
		<rect x="150" y="650" width="25" height="25" />
		<rect x="225" y="650" width="25" height="25" />
		<rect x="450" y="650" width="25" height="25" />
		<rect x="475" y="650" width="25" height="25" />
		<rect x="600" y="650" width="25" height="25" />
		<rect x="650" y="650" width="25" height="25" />
		<rect x="675" y="650" width="25" height="25" />
		<rect x="725" y="650" width="25" height="25" />
		<rect x="775" y="650" width="25" height="25" />
		<rect x="850" y="650" width="25" height="25" />
		<rect x="875" y="650" width="25" height="25" />
		<rect x="900" y="650" width="25" height="25" />
		<rect x="975" y="650" width="25" height="25" />
		<rect x="1000" y="650" width="25" height="25" />
		<rect x="0" y="675" width="25" height="25" />
		<rect x="25" y="675" width="25" height="25" />
		<rect x="75" y="675" width="25" height="25" />
		<rect x="125" y="675" width="25" height="25" />
		<rect x="175" y="675" width="25" height="25" />
		<rect x="250" y="675" width="25" height="25" />
		<rect x="300" y="675" width="25" height="25" />
		<rect x="325" y="675" width="25" height="25" />
		<rect x="375" y="675" width="25" height="25" />
		<rect x="525" y="675" width="25" height="25" />
		<rect x="550" y="675" width="25" height="25" />
		<rect x="650" y="675" width="25" height="25" />
		<rect x="700" y="675" width="25" height="25" />
		<rect x="775" y="675" width="25" height="25" />
		<rect x="800" y="675" width="25" height="25" />
		<rect x="825" y="675" width="25" height="25" />
		<rect x="900" y="675" width="25" height="25" />
		<rect x="925" y="675" width="25" height="25" />
		<rect x="950" y="675" width="25" height="25" />
		<rect x="1000" y="675" width="25" height="25" />
		<rect x="50" y="700" width="25" height="25" />
		<rect x="75" y="700" width="25" height="25" />
		<rect x="125" y="700" width="25" height="25" />
		<rect x="150" y="700" width="25" height="25" />
		<rect x="175" y="700" width="25" height="25" />
		<rect x="200" y="700" width="25" height="25" />
		<rect x="275" y="700" width="25" height="25" />
		<rect x="300" y="700" width="25" height="25" />
		<rect x="325" y="700" width="25" height="25" />
		<rect x="350" y="700" width="25" height="25" />
		<rect x="400" y="700" width="25" height="25" />
		<rect x="425" y="700" width="25" height="25" />
		<rect x="550" y="700" width="25" height="25" />
		<rect x="575" y="700" width="25" height="25" />
		<rect x="625" y="700" width="25" height="25" />
		<rect x="700" y="700" width="25" height="25" />
		<rect x="750" y="700" width="25" height="25" />
		<rect x="775" y="700" width="25" height="25" />
		<rect x="825" y="700" width="25" height="25" />
		<rect x="875" y="700" width="25" height="25" />
		<rect x="900" y="700" width="25" height="25" />
		<rect x="925" y="700" width="25" height="25" />
		<rect x="0" y="725" width="25" height="25" />
		<rect x="25" y="725" width="25" height="25" />
		<rect x="50" y="725" width="25" height="25" />
		<rect x="75" y="725" width="25" height="25" />
		<rect x="100" y="725" width="25" height="25" />
		<rect x="200" y="725" width="25" height="25" />
		<rect x="275" y="725" width="25" height="25" />
		<rect x="325" y="725" width="25" height="25" />
		<rect x="475" y="725" width="25" height="25" />
		<rect x="525" y="725" width="25" height="25" />
		<rect x="550" y="725" width="25" height="25" />
		<rect x="700" y="725" width="25" height="25" />
		<rect x="725" y="725" width="25" height="25" />
		<rect x="775" y="725" width="25" height="25" />
		<rect x="825" y="725" width="25" height="25" />
		<rect x="900" y="725" width="25" height="25" />
		<rect x="950" y="725" width="25" height="25" />
		<rect x="975" y="725" width="25" height="25" />
		<rect x="0" y="750" width="25" height="25" />
		<rect x="25" y="750" width="25" height="25" />
		<rect x="50" y="750" width="25" height="25" />
		<rect x="75" y="750" width="25" height="25" />
		<rect x="150" y="750" width="25" height="25" />
		<rect x="175" y="750" width="25" height="25" />
		<rect x="250" y="750" width="25" height="25" />
		<rect x="275" y="750" width="25" height="25" />
		<rect x="350" y="750" width="25" height="25" />
		<rect x="400" y="750" width="25" height="25" />
		<rect x="425" y="750" width="25" height="25" />
		<rect x="500" y="750" width="25" height="25" />
		<rect x="525" y="750" width="25" height="25" />
		<rect x="575" y="750" width="25" height="25" />
		<rect x="600" y="750" width="25" height="25" />
		<rect x="650" y="750" width="25" height="25" />
		<rect x="675" y="750" width="25" height="25" />
		<rect x="725" y="750" width="25" height="25" />
		<rect x="750" y="750" width="25" height="25" />
		<rect x="775" y="750" width="25" height="25" />
		<rect x="850" y="750" width="25" height="25" />
		<rect x="875" y="750" width="25" height="25" />
		<rect x="900" y="750" width="25" height="25" />
		<rect x="925" y="750" width="25" height="25" />
		<rect x="950" y="750" width="25" height="25" />
		<rect x="1000" y="750" width="25" height="25" />
		<rect x="0" y="775" width="25" height="25" />
		<rect x="25" y="775" width="25" height="25" />
		<rect x="50" y="775" width="25" height="25" />
		<rect x="75" y="775" width="25" height="25" />
		<rect x="100" y="775" width="25" height="25" />
		<rect x="175" y="775" width="25" height="25" />
		<rect x="200" y="775" width="25" height="25" />
		<rect x="225" y="775" width="25" height="25" />
		<rect x="300" y="775" width="25" height="25" />
		<rect x="350" y="775" width="25" height="25" />
		<rect x="450" y="775" width="25" height="25" />
		<rect x="500" y="775" width="25" height="25" />
		<rect x="525" y="775" width="25" height="25" />
		<rect x="600" y="775" width="25" height="25" />
		<rect x="825" y="775" width="25" height="25" />
		<rect x="900" y="775" width="25" height="25" />
		<rect x="950" y="775" width="25" height="25" />
		<rect x="975" y="775" width="25" height="25" />
		<rect x="1000" y="775" width="25" height="25" />
		<rect x="0" y="800" width="25" height="25" />
		<rect x="25" y="800" width="25" height="25" />
		<rect x="75" y="800" width="25" height="25" />
		<rect x="100" y="800" width="25" height="25" />
		<rect x="125" y="800" width="25" height="25" />
		<rect x="150" y="800" width="25" height="25" />
		<rect x="175" y="800" width="25" height="25" />
		<rect x="200" y="800" width="25" height="25" />
		<rect x="250" y="800" width="25" height="25" />
		<rect x="300" y="800" width="25" height="25" />
		<rect x="325" y="800" width="25" height="25" />
		<rect x="400" y="800" width="25" height="25" />
		<rect x="450" y="800" width="25" height="25" />
		<rect x="475" y="800" width="25" height="25" />
		<rect x="500" y="800" width="25" height="25" />
		<rect x="550" y="800" width="25" height="25" />
		<rect x="575" y="800" width="25" height="25" />
		<rect x="650" y="800" width="25" height="25" />
		<rect x="675" y="800" width="25" height="25" />
		<rect x="725" y="800" width="25" height="25" />
		<rect x="775" y="800" width="25" height="25" />
		<rect x="800" y="800" width="25" height="25" />
		<rect x="825" y="800" width="25" height="25" />
		<rect x="850" y="800" width="25" height="25" />
		<rect x="875" y="800" width="25" height="25" />
		<rect x="900" y="800" width="25" height="25" />
		<rect x="950" y="800" width="25" height="25" />
		<rect x="1000" y="800" width="25" height="25" />
		<rect x="200" y="825" width="25" height="25" />
		<rect x="350" y="825" width="25" height="25" />
		<rect x="375" y="825" width="25" height="25" />
		<rect x="400" y="825" width="25" height="25" />
		<rect x="425" y="825" width="25" height="25" />
		<rect x="550" y="825" width="25" height="25" />
		<rect x="600" y="825" width="25" height="25" />
		<rect x="625" y="825" width="25" height="25" />
		<rect x="650" y="825" width="25" height="25" />
		<rect x="675" y="825" width="25" height="25" />
		<rect x="700" y="825" width="25" height="25" />
		<rect x="725" y="825" width="25" height="25" />
		<rect x="750" y="825" width="25" height="25" />
		<rect x="800" y="825" width="25" height="25" />
		<rect x="900" y="825" width="25" height="25" />
		<rect x="950" y="825" width="25" height="25" />
		<rect x="1000" y="825" width="25" height="25" />
		<rect x="200" y="850" width="25" height="25" />
		<rect x="225" y="850" width="25" height="25" />
		<rect x="275" y="850" width="25" height="25" />
		<rect x="400" y="850" width="25" height="25" />
		<rect x="425" y="850" width="25" height="25" />
		<rect x="475" y="850" width="25" height="25" />
		<rect x="500" y="850" width="25" height="25" />
		<rect x="550" y="850" width="25" height="25" />
		<rect x="650" y="850" width="25" height="25" />
		<rect x="675" y="850" width="25" height="25" />
		<rect x="700" y="850" width="25" height="25" />
		<rect x="775" y="850" width="25" height="25" />
		<rect x="800" y="850" width="25" height="25" />
		<rect x="850" y="850" width="25" height="25" />
		<rect x="900" y="850" width="25" height="25" />
		<rect x="950" y="850" width="25" height="25" />
		<rect x="225" y="875" width="25" height="25" />
		<rect x="250" y="875" width="25" height="25" />
		<rect x="325" y="875" width="25" height="25" />
		<rect x="475" y="875" width="25" height="25" />
		<rect x="500" y="875" width="25" height="25" />
		<rect x="525" y="875" width="25" height="25" />
		<rect x="550" y="875" width="25" height="25" />
		<rect x="575" y="875" width="25" height="25" />
		<rect x="650" y="875" width="25" height="25" />
		<rect x="675" y="875" width="25" height="25" />
		<rect x="750" y="875" width="25" height="25" />
		<rect x="775" y="875" width="25" height="25" />
		<rect x="800" y="875" width="25" height="25" />
		<rect x="900" y="875" width="25" height="25" />
		<rect x="925" y="875" width="25" height="25" />
		<rect x="975" y="875" width="25" height="25" />
		<rect x="1000" y="875" width="25" height="25" />
		<rect x="200" y="900" width="25" height="25" />
		<rect x="250" y="900" width="25" height="25" />
		<rect x="350" y="900" width="25" height="25" />
		<rect x="375" y="900" width="25" height="25" />
		<rect x="400" y="900" width="25" height="25" />
		<rect x="450" y="900" width="25" height="25" />
		<rect x="475" y="900" width="25" height="25" />
		<rect x="500" y="900" width="25" height="25" />
		<rect x="550" y="900" width="25" height="25" />
		<rect x="575" y="900" width="25" height="25" />
		<rect x="600" y="900" width="25" height="25" />
		<rect x="625" y="900" width="25" height="25" />
		<rect x="650" y="900" width="25" height="25" />
		<rect x="675" y="900" width="25" height="25" />
		<rect x="700" y="900" width="25" height="25" />
		<rect x="725" y="900" width="25" height="25" />
		<rect x="775" y="900" width="25" height="25" />
		<rect x="800" y="900" width="25" height="25" />
		<rect x="825" y="900" width="25" height="25" />
		<rect x="850" y="900" width="25" height="25" />
		<rect x="875" y="900" width="25" height="25" />
		<rect x="900" y="900" width="25" height="25" />
		<rect x="975" y="900" width="25" height="25" />
		<rect x="1000" y="900" width="25" height="25" />
		<rect x="200" y="925" width="25" height="25" />
		<rect x="225" y="925" width="25" height="25" />
		<rect x="250" y="925" width="25" height="25" />
		<rect x="275" y="925" width="25" height="25" />
		<rect x="300" y="925" width="25" height="25" />
		<rect x="325" y="925" width="25" height="25" />
		<rect x="375" y="925" width="25" height="25" />
		<rect x="425" y="925" width="25" height="25" />
		<rect x="475" y="925" width="25" height="25" />
		<rect x="525" y="925" width="25" height="25" />
		<rect x="625" y="925" width="25" height="25" />
		<rect x="675" y="925" width="25" height="25" />
		<rect x="700" y="925" width="25" height="25" />
		<rect x="750" y="925" width="25" height="25" />
		<rect x="775" y="925" width="25" height="25" />
		<rect x="875" y="925" width="25" height="25" />
		<rect x="950" y="925" width="25" height="25" />
		<rect x="975" y="925" width="25" height="25" />
		<rect x="1000" y="925" width="25" height="25" />
		<rect x="325" y="950" width="25" height="25" />
		<rect x="350" y="950" width="25" height="25" />
		<rect x="450" y="950" width="25" height="25" />
		<rect x="550" y="950" width="25" height="25" />
		<rect x="575" y="950" width="25" height="25" />
		<rect x="675" y="950" width="25" height="25" />
		<rect x="700" y="950" width="25" height="25" />
		<rect x="725" y="950" width="25" height="25" />
		<rect x="750" y="950" width="25" height="25" />
		<rect x="800" y="950" width="25" height="25" />
		<rect x="875" y="950" width="25" height="25" />
		<rect x="900" y="950" width="25" height="25" />
		<rect x="975" y="950" width="25" height="25" />
		<rect x="1000" y="950" width="25" height="25" />
		<rect x="300" y="975" width="25" height="25" />
		<rect x="325" y="975" width="25" height="25" />
		<rect x="350" y="975" width="25" height="25" />
		<rect x="375" y="975" width="25" height="25" />
		<rect x="425" y="975" width="25" height="25" />
		<rect x="525" y="975" width="25" height="25" />
		<rect x="575" y="975" width="25" height="25" />
		<rect x="600" y="975" width="25" height="25" />
		<rect x="650" y="975" width="25" height="25" />
		<rect x="825" y="975" width="25" height="25" />
		<rect x="850" y="975" width="25" height="25" />
		<rect x="900" y="975" width="25" height="25" />
		<rect x="950" y="975" width="25" height="25" />
		<rect x="1000" y="975" width="25" height="25" />
		<rect x="250" y="1000" width="25" height="25" />
		<rect x="300" y="1000" width="25" height="25" />
		<rect x="425" y="1000" width="25" height="25" />
		<rect x="475" y="1000" width="25" height="25" />
		<rect x="550" y="1000" width="25" height="25" />
		<rect x="625" y="1000" width="25" height="25" />
		<rect x="675" y="1000" width="25" height="25" />
		<rect x="775" y="1000" width="25" height="25" />
		<rect x="800" y="1000" width="25" height="25" />
		<rect x="850" y="1000" width="25" height="25" />
		<rect x="875" y="1000" width="25" height="25" />
		<rect x="900" y="1000" width="25" height="25" />
		<rect x="925" y="1000" width="25" height="25" />

		<use href="#xrp-qr-marker" x="0" y="0" />
		<use href="#xrp-qr-marker" x="850" y="0" />
		<use href="#xrp-qr-marker" x="0" y="850" />

		<rect x="50" y="50" width="75" height="75" />
		<rect x="900" y="50" width="75" height="75" />
		<rect x="50" y="900" width="75" height="75" />
		
		<svg x="350" y="350" width="325" height="325" viewBox="0 0 512 512">
		  <circle fill="#8100f0" cx="50%" cy="50%" r="256" stroke-width="22" stroke="#fff" />
			<svg x="13%" y="13%" width="74%" height="74%" viewBox="0 0 32 32">
				<path fill="#ffffff" d="M26.25,3.89h4.19l-8.72,8.64c-3.16,3.12-8.28,3.12-11.44,0L1.55,3.89h4.2l6.63,6.56 c2,1.98,5.23,1.98,7.24,0L26.25,3.89z M5.69,28.11H1.5l8.78-8.69c3.16-3.13,8.28-3.13,11.44,0l8.78,8.69h-4.19l-6.69-6.62 c-2-1.98-5.23-1.98-7.24,0L5.69,28.11z" />
			</svg>
		</svg>
	</g>
</svg>
