<svg xmlns="http://www.w3.org/2000/svg" width="1em" height="1em" viewBox="0 0 512 512">
  <path fill="var(--pjVisorDepth, var(--pjLogoBrand1, #8100f0))" fill-rule="evenodd" d="M 97.108 224 L 87.073 233 80.787 233.014 C 70.712 233.036, 68.853 234.492, 66.125 244.500 L 65.307 247.500 63.881 242.540 L 62.456 237.580 58.550 236.769 C 52.807 235.576, 51.604 238.731, 54.329 247.842 L 55.627 252.184 53.745 257.760 C 49.692 269.765, 52.542 288.955, 62.172 314.500 C 69.109 332.902, 74.296 340, 80.809 340 C 83.807 340, 85.443 341.034, 91.492 346.750 C 102.264 356.928, 106.018 360.098, 111.500 363.645 C 114.250 365.424, 117.614 367.695, 118.975 368.690 C 132.660 378.695, 149.287 385.456, 151.812 382.040 C 155.372 377.225, 154.878 376.750, 137.750 368.508 C 98.812 349.769, 88.199 336.366, 75.400 289.763 L 71.627 276.026 75.390 263.263 C 77.459 256.243, 79.342 249.905, 79.573 249.177 C 79.868 248.249, 81.629 247.930, 85.481 248.109 L 90.969 248.363 101.682 236.650 C 109.278 228.344, 112.846 225.120, 113.947 225.567 C 121.113 228.474, 141.987 230.970, 144.610 229.235 C 147.708 227.185, 149.695 219.124, 147.143 218.958 C 146.789 218.935, 140.650 218.767, 133.500 218.584 C 125.107 218.370, 118.728 217.680, 115.500 216.637 C 108.062 214.234, 107.946 214.281, 97.108 224 M 390.500 217.523 C 387.750 218.230, 381.900 218.866, 377.500 218.936 C 368.705 219.076, 365.991 220.299, 366.015 224.110 C 366.047 229.059, 366.608 229.213, 383.619 228.916 L 399.500 228.638 409 237.804 L 418.500 246.969 423.132 246.985 L 427.764 247 430.516 255.750 C 436.848 275.888, 436.844 275.484, 430.909 296.703 C 420.154 335.150, 412.494 345.788, 383.719 362.234 C 373.699 367.961, 363.552 373.880, 361.170 375.386 L 356.841 378.126 359.295 381.313 C 362.719 385.758, 364.349 385.744, 370.830 381.216 C 373.949 379.037, 381.450 374.310, 387.500 370.711 C 393.550 367.113, 402.284 361.318, 406.908 357.834 C 411.533 354.350, 416.258 350.856, 417.408 350.069 C 418.559 349.283, 421.615 346.621, 424.201 344.156 C 428.058 340.477, 429.530 339.696, 432.404 339.804 C 438.169 340.021, 447.810 322.846, 454.186 301 C 454.748 299.075, 455.587 297.032, 456.051 296.461 C 456.515 295.889, 457.861 289.704, 459.042 282.714 L 461.189 270.007 458.711 261.357 L 456.233 252.707 458.303 247.726 L 460.372 242.745 458.686 241.513 C 457.759 240.834, 457 239.485, 457 238.515 C 457 237.072, 456.431 236.864, 453.875 237.375 C 452.156 237.719, 450.356 238, 449.875 238 C 449.394 238, 448.994 239.238, 448.986 240.750 C 448.942 249.777, 447.013 249.777, 443.879 240.750 L 441.363 233.500 432.006 233.727 L 422.649 233.955 413.369 224.977 L 404.090 216 399.795 216.119 C 397.433 216.184, 393.250 216.816, 390.500 217.523" />
  <path fill="var(--pjVisorSurface, var(--pjLogoBrand2, #ff00c7))" fill-rule="evenodd" d="M 91.870 221.065 L 81.500 230.962 72.807 230.981 L 64.114 231 61.307 238.475 L 58.500 245.950 56.954 240.725 L 55.409 235.500 52.954 235.500 L 50.500 235.500 49.947 242.500 C 49.643 246.350, 48.375 252.390, 47.128 255.923 C 41.159 272.841, 52.644 321.351, 66.524 337.846 L 69.178 341 73.376 341 L 77.575 341 82.538 346.104 C 98.801 362.831, 124.292 378.298, 143.776 383.260 C 148.322 384.418, 149.330 383.978, 150.420 380.360 L 151.065 378.219 144.501 375.147 C 140.891 373.458, 133.789 370.431, 128.719 368.421 C 116.604 363.619, 104.267 355.435, 95 346.053 L 87.500 338.460 82.305 327.980 C 76.814 316.904, 70.801 299.672, 67.014 284.166 L 64.734 274.831 67.808 264.666 C 69.499 259.075, 71.384 252.557, 71.998 250.182 L 73.114 245.863 79.092 246.107 L 85.069 246.351 95.998 234.271 L 106.926 222.191 116.213 224.576 C 125.265 226.900, 138.269 227.784, 140.610 226.235 C 141.627 225.562, 145 219.723, 145 218.635 C 145 218.380, 141.512 217.872, 137.250 217.508 C 126.598 216.596, 112.433 214.305, 106.870 212.593 L 102.240 211.168 91.870 221.065 M 396.500 214.596 C 393.200 215.331, 387.575 216.217, 384 216.565 C 380.425 216.912, 375.813 217.620, 373.750 218.137 L 370 219.077 370 222.539 L 370 226 373.750 226.109 C 381.309 226.329, 400.545 225.872, 402.057 225.436 C 403.028 225.157, 407.547 228.746, 414.057 234.965 L 424.500 244.943 429.566 244.972 L 434.633 245 438.814 259.750 L 442.995 274.500 440.498 285.500 C 434.755 310.799, 424.077 335.634, 414.105 346.881 L 408.173 353.573 387.171 365.286 C 375.620 371.729, 365.650 377, 365.014 377 C 364.378 377, 363.175 377.682, 362.341 378.516 L 360.824 380.033 362.699 382.993 L 364.573 385.953 378.665 379.650 C 393.435 373.043, 406.205 365.228, 416.807 356.307 C 420.276 353.388, 423.702 351, 424.420 351 C 425.139 351, 427.831 348.750, 430.403 346 L 435.080 341 438.885 341 C 444.783 341, 461.943 309.774, 461.993 298.950 C 461.997 298.098, 462.469 296.931, 463.041 296.359 C 463.614 295.786, 464.982 289.540, 466.080 282.478 L 468.078 269.639 466.473 262.581 C 465.590 258.699, 464.166 254.044, 463.307 252.235 C 461.824 249.109, 461.890 246.034, 463.566 240.296 L 464.209 238.091 460.855 236.685 C 456.785 234.979, 456.004 235.320, 455.986 238.809 C 455.941 247.788, 453.981 247.766, 450.812 238.750 L 448.263 231.500 438.555 231.500 L 428.847 231.500 419.009 222.250 L 409.170 213 405.835 213.130 C 404.001 213.202, 399.800 213.861, 396.500 214.596" />
  <path fill="var(--pjVisorDetail, var(--pjLogoBrand1, #8100f0))" fill-rule="evenodd" d="M 48 251.500 L 48 253 53.500 253 L 59 253 59 251.500 L 59 250 53.500 250 L 48 250 48 251.500 M 453 252.500 L 453 254 458.500 254 L 464 254 464 252.500 L 464 251 458.500 251 L 453 251 453 252.500 M 459.750 274.662 L 455 276.116 455 277.846 C 455 278.797, 453.251 286.533, 451.114 295.038 L 447.229 310.500 440.614 324.375 C 433.786 338.700, 433.056 341, 435.339 341 C 436.078 341, 439.717 334.612, 443.457 326.750 L 450.236 312.500 454.447 295.582 L 458.658 278.664 463.329 277.302 C 466.154 276.478, 468 275.359, 468 274.470 C 468 272.694, 466.030 272.740, 459.750 274.662 M 45 275.367 C 45 276.118, 47.184 277.641, 49.853 278.750 L 54.705 280.767 58.966 298.133 L 63.227 315.500 69.265 328.750 C 72.667 336.216, 75.891 342, 76.651 342 C 78.896 342, 78.236 339.663, 72.613 327.696 L 67.227 316.232 63.034 298.903 C 58.053 278.311, 58.093 278.397, 52.347 275.934 C 47.021 273.652, 45 273.495, 45 275.367" />
</svg>
